<svg width="1125.18" height="799.4000000000001" xmlns="http://www.w3.org/2000/svg" xmlns:xlink="http://www.w3.org/1999/xlink" style="vector-effect: non-scaling-stroke;" stroke="null">
 <defs style="vector-effect: non-scaling-stroke;" stroke="null">
  <linearGradient style="vector-effect: non-scaling-stroke;" stroke="null" y2="0.50012" x2="1.00001" y1="0.50012" x1="-0.00014" id="8dd6f013-f11b-441a-9800-0d03dc0740bb">
   <stop style="vector-effect: non-scaling-stroke;" stroke="null" stop-opacity="0.25" stop-color="gray" offset="0"/>
   <stop style="vector-effect: non-scaling-stroke;" stroke="null" stop-opacity="0.12" stop-color="gray" offset="0.54"/>
   <stop style="vector-effect: non-scaling-stroke;" stroke="null" stop-opacity="0.1" stop-color="gray" offset="1"/>
  </linearGradient>
  <linearGradient style="vector-effect: non-scaling-stroke;" stroke="null" xlink:href="#8dd6f013-f11b-441a-9800-0d03dc0740bb" y2="305.98" x2="192.89" y1="798.89" x1="192.89" id="e927a054-4c7d-4a3b-bb46-bc5c1d4b184d"/>
  <linearGradient style="vector-effect: non-scaling-stroke;" stroke="null" xlink:href="#8dd6f013-f11b-441a-9800-0d03dc0740bb" gradientTransform="matrix(-1, 0, 0, 1, 2848.16, 0)" y2="409.29" x2="1815.14" y1="810.44" x1="1815.14" id="e3491b7b-890d-4a85-a806-3cf3d862c8a7"/>
 </defs>
 <title style="vector-effect: non-scaling-stroke;" stroke="null">refreshing</title>
 <g stroke="null">
  <title stroke="null">background</title>
  <rect stroke="null" fill="none" id="canvas_background" height="602" width="802" y="-1" x="-1"/>
 </g>
 <g stroke="null">
  <title stroke="null">Layer 1</title>
  <ellipse stroke="null" transform="translate(-212.3077392578125,107.69232940673828) translate(-543.0770263671875,92.30770874023438) " id="svg_1" opacity="0.1" fill="#6c63ff" ry="29.17" rx="173.28" cy="705.22" cx="491.84"/>
  <ellipse stroke="null" id="svg_3" opacity="0.1" fill="#6c63ff" ry="29.17" rx="141.79" cy="883.34079" cx="-352.72087"/>
  <path stroke="null" id="svg_6" fill="#444176" d="m640.82,597.16s-28.29,37.19 -51.7,37.49s-37.2,15.66 -26.08,25.26s132.43,-5.48 132.43,-5.48s1.12,-45.73 -9.35,-52.42s-45.3,-4.85 -45.3,-4.85z"/>
  <path stroke="null" id="svg_7" fill="#444176" d="m944.59,641.8s4.33,29.45 -9,49.53s24.14,27.82 24.14,27.82s27.25,7.59 29.19,-19.32s1.34,-47.54 -1.24,-49.69s-4.69,-17.33 -4.69,-17.33l-38.4,8.99z"/>
  <path stroke="null" id="svg_8" fill="#a8a8a8" d="m516.9,697.41s-1,-95.24 93.26,-133.93l21.83,-41.67l22.82,-55.56l48.61,-10.91l13.89,-58.54s53.58,-18.85 88.3,-11.9l6.98,11.9s89.3,-1 93.26,47.62c0,0 8.93,44.65 21.83,52.59c0,0 21.83,-5 43.65,26.78l23.81,81.36s62.45,58.55 43.62,112.11c0,0 -25.8,36.7 -156.76,11.9c0,0 -139.89,42.66 -214.29,-15.87c0,0 -124.02,23.81 -150.81,-15.88z"/>
  <path stroke="#000" id="svg_9" opacity="0.1" stroke-miterlimit="10" fill="none" d="m579.41,682.53s19.84,-27.78 18.85,-47.62s4.67,-68.21 4.67,-68.21"/>
  <path stroke="#000" id="svg_10" opacity="0.1" stroke-miterlimit="10" fill="none" d="m651.83,608.12s19.84,-36.7 17.86,-56.55c0,0 20.83,-37.7 36.71,-34.72"/>
  <path stroke="#000" id="svg_11" opacity="0.1" stroke-miterlimit="10" fill="none" d="m760.96,503.95s54.57,-19.84 57.55,-35.72"/>
  <path stroke="#000" id="svg_12" opacity="0.1" stroke-miterlimit="10" fill="none" d="m780.81,549.59s57.54,-25.8 57.54,-32.74l28.77,0s41.67,54.57 36.71,78.38"/>
  <path stroke="#000" id="svg_13" opacity="0.1" stroke-miterlimit="10" fill="none" d="m848.27,589.27s-55.56,-4 -75.4,11.91s-55.56,23.81 -55.56,23.81s-20.83,44.64 -28.72,52.58s-20.83,35.72 -20.83,35.72"/>
  <path stroke="#000" id="svg_14" opacity="0.1" stroke-miterlimit="10" fill="none" d="m848.27,641.86s6,20.83 13.89,32.74s19.84,54.56 19.84,54.56"/>
  <path stroke="#000" id="svg_15" opacity="0.1" stroke-miterlimit="10" fill="none" d="m941.53,702.37s12.59,35 23.66,35.38"/>
  <path stroke="#000" id="svg_16" opacity="0.1" stroke-miterlimit="10" fill="none" d="m859.04,551.98s32.72,8.84 46.39,30.26s55.5,40.86 55.5,40.86"/>
  <path stroke="#000" id="svg_17" opacity="0.1" stroke-miterlimit="10" fill="none" d="m873.07,446.41s0,45.64 12.9,45.64s41.67,5 41.67,5"/>
  <path stroke="#000" id="svg_18" opacity="0.1" stroke-miterlimit="10" fill="none" d="m809.9,392.25s-3.3,78.83 -20.16,99.23"/>
  <g stroke="null" id="svg_19" opacity="0.05">
   <path stroke="null" id="svg_20" d="m993.12,604.15l-23.81,-81.35c-21.83,-31.75 -43.65,-26.79 -43.65,-26.79c-12.9,-7.93 -21.83,-52.58 -21.83,-52.58c-4,-48.61 -93.26,-47.62 -93.26,-47.62l-6.98,-11.91c-8.79,-1.75 -18.79,-1.86 -28.83,-1c2.4,0.24 4.74,0.58 7,1l6.94,11.91s89.29,-1 93.26,47.62c0,0 8.93,44.65 21.83,52.58c0,0 21.83,-5 43.65,26.79l23.81,81.35s62.51,58.54 43.66,112.11c0,0 -12.73,18.11 -65.68,20.3c71.38,2.62 87.5,-20.3 87.5,-20.3c18.86,-53.56 -43.61,-112.11 -43.61,-112.11z"/>
   <path stroke="null" id="svg_21" d="m643.89,712.3a463.78,463.78 0 0 1 -63.56,6.88c24.85,0.95 50.71,-1.73 67.37,-4c-1.28,-0.95 -2.56,-1.9 -3.81,-2.88z"/>
   <path stroke="null" id="svg_22" d="m858.19,728.17a407.83,407.83 0 0 1 -93.68,14.81c45.73,1.66 89.05,-7.87 106.91,-12.46c-4.29,-0.71 -8.69,-1.49 -13.23,-2.35z"/>
  </g>
  <path stroke="null" id="svg_23" fill="#535461" d="m633.51,296.88l0,352.63a72,72 0 0 1 -72,72l-141.59,0a90.38,90.38 0 0 1 -90.33,-90.42l0,-346.87a58.8,58.8 0 0 1 17,-41.43a59.62,59.62 0 0 1 12.12,-9.46a58.78,58.78 0 0 1 29.9,-8.12l173.22,0a71.68,71.68 0 0 1 71.68,71.67z"/>
  <path stroke="null" id="svg_24" fill="url(#8dd6f013-f11b-441a-9800-0d03dc0740bb)" d="m875.77,136.97c-0.23,-1.14 -2.09,-4.32 -2,-5.46s-2.32,-2.61 -3,-3.52a2.19,2.19 0 0 1 0,-2.16l-2.31,-0.45a5.5,5.5 0 0 1 1.15,-3.87c1.5,-2.28 -1.17,-8.16 -1.17,-8.16l-6.86,-6l0,1.27c0,-0.42 -0.11,-0.84 -0.16,-1.27s-0.07,-0.67 -0.1,-1a2.68,2.68 0 0 0 1,-0.73a2.4,2.4 0 0 0 0.75,-1.06c0,-0.11 0,-0.21 0.08,-0.32l0,0a3.84,3.84 0 0 0 0.11,-0.46l0,0a4.86,4.86 0 0 1 0.11,-0.55a3.09,3.09 0 0 1 0.62,-1.14a3,3 0 0 1 0.91,-0.58c1.54,-0.61 3.58,-0.06 4.72,-1.25a1.67,1.67 0 0 0 0.12,-0.16c0.07,-0.06 0.16,-0.11 0.23,-0.18a2.15,2.15 0 0 0 0.55,-1.13a2.66,2.66 0 0 0 0.11,-0.47l-0.06,0a6.56,6.56 0 0 0 -0.51,-2.49c-0.5,-1.34 -1,-2.94 -0.19,-4.11c0.19,-0.27 0.45,-0.5 0.66,-0.76a3.46,3.46 0 0 0 0.67,-1.53l0,-0.09l0,0a6,6 0 0 0 0.1,-1.4a8.82,8.82 0 0 0 -1.76,-5a2.5,2.5 0 0 0 0.3,-0.64a21.83,21.83 0 0 0 0.92,-6.11c0,-0.09 0,-0.18 0,-0.28s0,0 0,-0.06a20.11,20.11 0 0 0 -7.86,-16.47a16.19,16.19 0 0 0 -9.28,-3.43a21.73,21.73 0 0 1 -2.9,-0.28c-4.76,-0.84 -20.53,-2.06 -27.11,16.88l0,3.42s-14.76,3.77 -14.16,4.79l0.08,0.11c-0.08,0.08 -0.12,0.17 -0.08,0.23c0.61,1 1.65,-0.68 3.74,1.79c1.54,1.82 6,4.57 9.65,5.44a20.5,20.5 0 0 0 13.91,18.66c0,0.23 0,0.46 0,0.7a21.56,21.56 0 0 1 -0.32,2.82c-0.07,-0.14 -0.21,-0.22 -0.4,-0.41c-0.69,-0.68 -7.71,-3.56 -14.89,-2.75s-25,11.79 -25,11.79s-0.15,0.81 -0.4,2.13c-2.57,2.39 -5.38,5 -6.3,6.07c-1.85,2.05 -6.23,9.1 -6.23,9.1s-3.12,2.46 -3.12,5.55a2.86,2.86 0 0 1 -0.75,2.07a13.48,13.48 0 0 0 -5.61,-1.91l-0.14,0l0.09,-0.08l-2.9,-2.85l-0.09,0.08l0,0l-0.18,0.18l0,0l-0.18,0.18l0,0l-0.18,0.18l0,0l-0.16,0.15l-0.56,0.55l0,0l-0.18,0.18l0,0l-0.55,0.53l0,0l-0.17,0.18l0,0l-0.32,0.31l0,0l0,0l-0.19,0.18l0,0l-0.17,0.17l0,0l-0.19,0.18l0,0l-0.09,0.09a11.8,11.8 0 0 0 -3.63,1.43l-5.09,-3.35l-6,-4.94s-7.62,-8.92 -19.52,0s19.21,10.61 19.21,10.61s8,9.55 10.2,12.16c1.49,1.77 6.5,4.64 9.67,6.33c-0.71,2.09 -1.16,4.09 -1.44,5.15c-0.69,2.61 -0.35,1.93 -1.15,3.64s-2.43,1.59 -1.5,4.66l-13.3,6.05c-16.94,-1.4 -61.43,6.6 -61.43,6.6c-13.29,2.18 -16.07,4.46 -16.52,8s-9.34,19 -9.34,19l-12.93,23s-9.69,20.26 -10.26,23.22s-9.82,12.07 -9.82,12.07l1.62,0.91l-0.91,0.17c-5.37,0.82 -12.5,-1.41 -12.5,-1.41l-8,-6.05a11.2,11.2 0 0 0 -5.87,-2.27a8.07,8.07 0 0 0 -2.52,0.17c-4.86,1.16 -5.36,6.93 -5.36,6.93s15.76,24.43 22.36,24s8.45,5.9 8.45,5.9s7.88,9.89 15.4,9.19c1.45,-0.13 2.93,-1.17 4.39,-2.75c4.24,-4.64 8.19,-14 10.18,-19.15c0.07,-0.2 0.14,-0.39 0.22,-0.58a17.85,17.85 0 0 0 3.41,1.45c1.62,0 6,-12.29 6,-12.29s0,-5.46 2.3,-7.28s6.46,-10.36 6.46,-10.36s0.46,-3.87 3.92,-10.13s10.5,-19.92 10.5,-19.92l0.92,-4.89l2.43,-1.37l0,-2l2.08,-2.17c3.36,3.07 20,3 20,3c4.74,1.47 45.12,6.53 45.12,6.53c3.82,4.09 0.32,62.33 1.24,64.83s1.29,8.53 1.29,8.53l4.65,20.58s7.1,31.84 8.61,34.23a14.37,14.37 0 0 1 1.74,5.79s-0.32,10 4.1,14.57l-0.23,0.44a30.65,30.65 0 0 1 -3.72,4.86l-8.21,6.42a16.24,16.24 0 0 0 -2.2,3.38c-1.07,2.24 -1.73,5.18 0.37,7.54c3.94,4.43 30.19,-0.72 31.11,-2.89s3.93,-3.3 3.93,-3.3s6.71,2.15 9.59,-2.52a8.29,8.29 0 0 0 1,-5.19a17.92,17.92 0 0 0 -2,-6.29l-2.69,-11.75l-0.1,-0.44a12.35,12.35 0 0 0 0.68,-6.35s-4.73,1.83 -3.14,-11.82s-8.14,-36.05 -8.14,-36.05c1.49,-5.46 -5.22,-11.7 -5.22,-11.7s-0.24,-3.87 -1.75,-5.92s0,-11.6 0,-11.6s1.13,-16.49 6.55,-25.94s1.14,-11 4.61,-14.56s3.8,-13.54 3.8,-13.54s6.46,-11.5 5.87,-15.6a17.14,17.14 0 0 1 0.46,-5.54l0.69,0.2c0,-0.26 0.09,-0.5 0.15,-0.74l0.2,0.06a11.33,11.33 0 0 1 1,-3.2a12.51,12.51 0 0 1 3.49,-4c3,1.32 4.55,0.13 4.55,0.13l11.99,-6.81a3.4,3.4 0 0 0 1,0.57c0.48,0.3 0.81,0.43 0.93,0.32c1,-0.91 9,-8.81 9,-8.81l0,0c0.52,0.23 0.89,0.34 1,0.27a7,7 0 0 0 3.12,-2.5a1.86,1.86 0 0 0 0,-1.71s3.12,-3.07 5,-3.76s4.91,-7.28 4.91,-7.28s4.22,-1 4.91,-1.15s2.31,-1.94 7.85,-10.36s-1.31,-24.92 -1.54,-26.05zm-40,-23.63c-0.21,0.77 -0.44,1.54 -0.69,2.3l0,0c0.31,-0.94 0.51,-1.69 0.72,-2.3l-0.03,0z"/>
  <path stroke="null" id="svg_25" fill="#fbbebe" d="m774.23,165.78c-0.33,-0.12 -9.94,-5.07 -12.09,-7.66l-9.95,-12.07s-30.37,-1.65 -18.75,-10.53s19,0 19,0l5.9,4.91l15.25,10.11l5,-4.87l3.4,11.85l-7.76,8.26z"/>
  <path stroke="null" id="svg_26" opacity="0.1" d="m774.23,165.78c-0.33,-0.12 -9.94,-5.07 -12.09,-7.66l-9.95,-12.07s-30.37,-1.65 -18.75,-10.53s19,0 19,0l5.9,4.91l15.25,10.11l5,-4.87l3.4,11.85l-7.76,8.26z"/>
  <path stroke="null" id="svg_27" fill="#b07473" d="m604.47,273.26s15.39,24.25 21.82,23.79s8.25,5.86 8.25,5.86s7.69,9.81 15,9.13c1.42,-0.14 2.87,-1.17 4.29,-2.74c4.14,-4.61 8,-13.86 9.93,-19c0.84,-2.22 1.33,-3.68 1.33,-3.68s-19.33,-14.2 -24.41,-11.59a9.07,9.07 0 0 1 -2.8,0.85c-5.25,0.81 -12.21,-1.4 -12.21,-1.4l-7.81,-6a10.77,10.77 0 0 0 -5.73,-2.26a8,8 0 0 0 -2.46,0.17c-4.71,1.15 -5.2,6.87 -5.2,6.87z"/>
  <path stroke="null" id="svg_28" opacity="0.1" d="m604.47,273.26s15.39,24.25 21.82,23.79s8.25,5.86 8.25,5.86s7.69,9.81 15,9.13c1.42,-0.14 2.87,-1.17 4.29,-2.74c-3.7,-1.23 -10.73,-4 -12.83,-8.26c-2.88,-5.81 -5.43,-10.32 -9.72,-10s-8.52,-0.21 -9.43,-1.62s-10.57,-12.41 -10.57,-12.41s-0.56,-7.15 -1.61,-10.65c-4.71,1.18 -5.2,6.9 -5.2,6.9z"/>
  <path stroke="null" id="svg_29" fill="#b07473" d="m772.19,400.7c3.84,4.4 29.46,-0.72 30.36,-2.87s3.83,-3.27 3.83,-3.27s6.56,2.13 9.37,-2.5a8.3,8.3 0 0 0 1,-5.15a18,18 0 0 0 -1.92,-6.25l-2.62,-11.66l-1,-4.48s-24.37,8.16 -24.49,11.1a7.1,7.1 0 0 1 -1.1,3a30.28,30.28 0 0 1 -3.63,4.83l-8,6.37a15.8,15.8 0 0 0 -2.15,3.35c-1.06,2.28 -1.7,5.21 0.35,7.53z"/>
  <path stroke="null" id="svg_30" opacity="0.1" d="m772.19,400.7c3.84,4.4 29.46,-0.72 30.36,-2.87s3.83,-3.27 3.83,-3.27s6.56,2.13 9.37,-2.5a8.3,8.3 0 0 0 1,-5.15c-2.51,1.56 -6.74,3.6 -9,1.43c0,0 -2.71,-0.89 -6,5.88c0,0 -1.63,3.62 -5,3a8.91,8.91 0 0 0 -5.7,0.74s-9.54,0.47 -11.07,-1.56a8,8 0 0 0 -8.08,-3.19c-1.12,2.24 -1.76,5.17 0.29,7.49z"/>
  <polygon stroke="null" id="svg_31" fill="#7b7bdb" points="865.38 113.41 858.69 107.48 858.7 115.19 859.18 118.24 865.38 113.41"/>
  <polygon stroke="null" id="svg_32" opacity="0.1" points="865.38 113.41 858.69 107.48 858.7 115.19 859.18 118.24 865.38 113.41"/>
  <path stroke="null" id="svg_33" fill="#fbbebe" d="m825.44,131.33l21.72,4s23.65,-4.26 16.66,-11.7c-3.06,-3.26 -4.56,-9.83 -5.29,-16.18c-0.29,-2.59 -0.46,-5.14 -0.54,-7.42c-0.19,-4.92 0,-8.57 0,-8.57s-29.47,1.56 -24.61,10.53a11.07,11.07 0 0 1 1.08,5.86c-0.48,9.85 -9.02,23.48 -9.02,23.48z"/>
  <path stroke="null" id="svg_34" opacity="0.1" d="m833.35,102.02a11.07,11.07 0 0 1 1.08,5.86a20.59,20.59 0 0 0 6.74,1.13a20.32,20.32 0 0 0 16.82,-8.95c-0.19,-4.92 0,-8.57 0,-8.57s-29.5,1.56 -24.64,10.53z"/>
  <circle stroke="null" id="svg_35" fill="#fbbebe" r="20.32" cy="88.01" cx="841.14"/>
  <path stroke="null" id="svg_36" opacity="0.1" d="m785.59,378.7l0.32,0.34c4.41,4.51 19.87,-2.39 23.93,-6.35a9.92,9.92 0 0 0 2.35,-3.65l-1,-4.48s-24.37,8.16 -24.49,11.1a7.1,7.1 0 0 1 -1.11,3.04z"/>
  <path stroke="null" id="svg_37" opacity="0.1" d="m637.91,275.87c3.43,2 18.77,10.74 25.88,14.42c0.84,-2.22 1.33,-3.68 1.33,-3.68s-19.33,-14.2 -24.41,-11.59a9.07,9.07 0 0 1 -2.8,0.85z"/>
  <path stroke="null" id="svg_38" fill="#65617d" d="m637.21,274.8s28.59,16.44 30.17,16.44s5.85,-12.2 5.85,-12.2s0,-5.42 2.25,-7.23s6.31,-10.28 6.31,-10.28s0.45,-3.84 3.82,-10.05s10.25,-19.78 10.25,-19.78l0.9,-4.85l2.37,-1.36l0,-2l2,-2.15c3.28,3 19.54,3 19.54,3c4.63,1.46 44,6.49 44,6.49c3.73,4.06 0.31,61.87 1.21,64.35s1.26,8.46 1.26,8.46l4.54,20.43s6.93,31.6 8.4,34a14.61,14.61 0 0 1 1.7,5.76s-0.32,10 4.09,14.56s19.87,-2.4 23.93,-6.36s2.92,-9.71 2.92,-9.71s-4.63,1.81 -3.07,-11.74s-8,-35.78 -8,-35.78c1.46,-5.42 -5.1,-11.62 -5.1,-11.62s-0.23,-3.84 -1.7,-5.87s0,-11.51 0,-11.51s1.1,-16.37 6.4,-25.75s1.11,-10.95 4.49,-14.46s3.85,-13.48 3.85,-13.48s6.31,-11.41 5.73,-15.47s2,-11 2,-11l-48.24,-28.61l-14.49,6.72c-16.48,-1.56 -59.94,6.41 -59.94,6.41c-13,2.16 -15.68,4.42 -16.13,7.92s-9.12,18.87 -9.12,18.87l-12.61,22.82s-9.46,20.11 -10,23.05s-9.58,11.98 -9.58,11.98z"/>
  <path stroke="null" id="svg_39" opacity="0.1" d="m821.44,203.27a12.06,12.06 0 0 0 -5,8.06s-4.86,-1.46 -6.67,-1.35s-16.83,-8.55 -16.83,-8.55s-23.38,-9.91 -23.61,-12.84s-9,-6.94 -9,-6.94l7,-3.22l39.65,17.9l14.46,6.94z"/>
  <path stroke="null" id="svg_40" fill="#444053" d="m821.78,202.59a12.09,12.09 0 0 0 -5,8.06s-4.85,-1.46 -6.66,-1.34s-16.83,-8.56 -16.83,-8.56s-23.38,-9.9 -23.61,-12.84s-9,-6.93 -9,-6.93l7,-3.23l39.56,17.95l14.54,6.89z"/>
  <path stroke="null" id="svg_41" opacity="0.1" d="m800.85,230.7s-4.42,-4.18 -9.6,-4.17s-16.49,-4.27 -16.49,-4.27s12.2,6.31 15,6.31s11.09,2.13 11.09,2.13z"/>
  <path stroke="null" id="svg_42" opacity="0.1" d="m799.07,246.12c-0.34,-0.33 -12.77,-5.06 -12.66,-7.54l12.66,7.54z"/>
  <path stroke="null" id="svg_43" opacity="0.1" d="m757.28,182.52s2.06,32.39 3.39,35.09c0,0 -5.34,-29.43 -3.39,-35.09z"/>
  <path stroke="null" id="svg_44" opacity="0.1" d="m689.27,202.77s6,18.89 8.27,20.46c0.05,0 -12.66,-13.94 -8.27,-20.46z"/>
  <path stroke="null" id="svg_45" opacity="0.1" d="m806.14,215.63a27.77,27.77 0 0 1 -0.67,3.5l-19.1,-8.43s-2.71,-3.95 -4.4,-4.51s-3,-5.51 -2,-6.14a29,29 0 0 0 3.23,-3.83l3.2,1.05l-1.92,3.73s-4.62,1.77 -1.69,3.2a14.49,14.49 0 0 1 5,4.81l18.35,6.62z"/>
  <circle stroke="null" id="svg_46" fill="#dde1eb" r="1.08" cy="198.47" cx="808.04"/>
  <circle stroke="null" id="svg_47" fill="#dde1eb" r="1.08" cy="201.33" cx="806.67"/>
  <circle stroke="null" id="svg_48" fill="#dde1eb" r="1.08" cy="204.43" cx="805.05"/>
  <path stroke="null" id="svg_49" opacity="0.1" d="m867.8,88.61a4.41,4.41 0 0 1 -0.76,3c-0.2,0.26 -0.45,0.48 -0.64,0.75c-0.82,1.16 -0.3,2.75 0.19,4.07s0.87,3 -0.1,4c-1.11,1.18 -3.1,0.63 -4.6,1.23a3.14,3.14 0 0 0 -1.83,2.06c-0.12,0.43 -0.14,0.89 -0.28,1.31a2.53,2.53 0 0 1 -2.54,1.65c-1.55,-0.14 -2.61,-1.76 -2.77,-3.31a16.54,16.54 0 0 1 0.58,-4.62a5.79,5.79 0 0 0 -0.66,-4.5a2,2 0 0 0 -1.34,-0.87a2.37,2.37 0 0 0 -1.92,0.92a11.46,11.46 0 0 1 -1.48,1.63c-1,0.73 -2.36,0.78 -3.39,1.47c-0.72,0.48 -1.33,1.28 -2.19,1.26a1.74,1.74 0 0 1 -1.5,-1.33a4.65,4.65 0 0 1 0,-2.13a2,2 0 0 0 0,-0.9a1.41,1.41 0 0 0 -0.4,-0.59c-0.91,-0.87 -2.26,-1.16 -3.15,-2.06c-0.6,-0.61 -0.93,-1.46 -1.55,-2.07a7,7 0 0 0 -3.12,-1.38a20.36,20.36 0 0 1 -7.6,-4.1a6.21,6.21 0 0 1 -1.46,-1.65a5.11,5.11 0 0 1 -0.56,-2.27a8.47,8.47 0 0 1 1.07,-4.46a1.89,1.89 0 0 1 0.69,-0.79a2.26,2.26 0 0 1 1.16,-0.14c9.27,0.57 18.57,1.15 27.66,3c5.69,1.23 12.28,4.21 12.49,10.82z"/>
  <path stroke="null" id="svg_50" fill="#585268" d="m868.14,88.27a4.47,4.47 0 0 1 -0.76,3c-0.2,0.26 -0.45,0.48 -0.65,0.75c-0.81,1.16 -0.29,2.75 0.2,4.08s0.87,3 -0.1,4c-1.11,1.18 -3.1,0.63 -4.61,1.24a3.08,3.08 0 0 0 -1.82,2.05c-0.12,0.43 -0.14,0.89 -0.29,1.31a2.49,2.49 0 0 1 -2.53,1.65c-1.56,-0.14 -2.61,-1.76 -2.77,-3.31a16.54,16.54 0 0 1 0.58,-4.62a5.83,5.83 0 0 0 -0.66,-4.5a2,2 0 0 0 -1.35,-0.87a2.37,2.37 0 0 0 -1.91,0.92a11.58,11.58 0 0 1 -1.49,1.63c-1,0.73 -2.35,0.78 -3.38,1.47c-0.72,0.48 -1.33,1.28 -2.19,1.26a1.73,1.73 0 0 1 -1.5,-1.33a4.74,4.74 0 0 1 0,-2.12a1.87,1.87 0 0 0 0,-0.91a1.48,1.48 0 0 0 -0.4,-0.59c-0.91,-0.87 -2.27,-1.16 -3.15,-2.06c-0.61,-0.61 -0.93,-1.46 -1.55,-2.07a7.08,7.08 0 0 0 -3.12,-1.38a20.29,20.29 0 0 1 -7.6,-4.1a6.21,6.21 0 0 1 -1.46,-1.65a5.08,5.08 0 0 1 -0.56,-2.27a8.47,8.47 0 0 1 1.07,-4.46a1.81,1.81 0 0 1 0.69,-0.78a2.15,2.15 0 0 1 1.16,-0.15c9.27,0.57 18.57,1.15 27.66,3c5.69,1.24 12.23,4.24 12.49,10.81z"/>
  <path stroke="null" id="svg_51" fill="#7b7bdb" d="m840.59,117.48s10.27,-0.81 11.86,1.45s13,-5.52 13,-5.52s2.61,5.84 1.14,8.1a5.54,5.54 0 0 0 -1.12,3.84l2.26,0.44a2.2,2.2 0 0 0 0,2.15c0.68,0.9 3,2.37 2.94,3.5s1.7,4.28 1.93,5.41s6.91,17.49 1.5,25.85s-7,10.17 -7.66,10.29s-4.79,1.13 -4.79,1.13s-3,6.56 -4.8,7.24s-4.85,3.73 -4.85,3.73a1.88,1.88 0 0 1 0,1.69a7,7 0 0 1 -3.05,2.49c-1.24,0.57 -20.79,-12.62 -20.79,-12.62s-6,25.07 -8.09,25.87s-11.48,-4.82 -11.48,-4.82s-8.13,2.61 -12.08,-0.21s-21.92,-11 -22.6,-14.08s-5.42,-2.59 -6.33,-5.64s0.67,-2.93 1.46,-4.63s0.45,-1 1.12,-3.61s2.36,-10.84 6.42,-12.2a22.58,22.58 0 0 0 12.52,-12.55c2.25,-6.33 5.72,-25.53 5.72,-25.53s17.37,-10.9 24.37,-11.7s13.85,2.06 14.53,2.73s0.68,0 -0.89,5.42c-1.04,3.62 7.76,1.78 7.76,1.78z"/>
  <g stroke="null" id="svg_52" opacity="0.1">
   <path stroke="null" id="svg_53" d="m867.1,91.31a2.25,2.25 0 0 1 0.39,-1c0.17,-0.24 0.39,-0.45 0.58,-0.67a3.33,3.33 0 0 1 -0.61,1.27c-0.11,0.13 -0.24,0.27 -0.36,0.4z"/>
   <path stroke="null" id="svg_54" d="m826.27,75.05a2.61,2.61 0 0 1 0.17,-0.28a8.47,8.47 0 0 0 -0.56,3.38a5.11,5.11 0 0 0 0.56,2.27a6.21,6.21 0 0 0 1.46,1.65a20.29,20.29 0 0 0 7.6,4.1a7,7 0 0 1 3.12,1.38c0.61,0.61 0.94,1.46 1.55,2.07c0.88,0.9 2.24,1.18 3.14,2.06a1.35,1.35 0 0 1 0.41,0.59a2,2 0 0 1 0,0.9a4.79,4.79 0 0 0 0,2.13a1.72,1.72 0 0 0 1.5,1.33c0.86,0 1.47,-0.78 2.18,-1.26c1,-0.69 2.4,-0.74 3.39,-1.48a11.5,11.5 0 0 0 1.49,-1.62a2.37,2.37 0 0 1 1.91,-0.92a2.07,2.07 0 0 1 1.35,0.87a5.79,5.79 0 0 1 0.65,4.5a17.32,17.32 0 0 0 -0.58,4.62c0.17,1.55 1.22,3.17 2.77,3.31a2.49,2.49 0 0 0 2,-0.75c0,0.15 -0.07,0.31 -0.11,0.45a2.52,2.52 0 0 1 -2.54,1.66c-1.55,-0.15 -2.61,-1.76 -2.77,-3.31a16.66,16.66 0 0 1 0.58,-4.63a5.79,5.79 0 0 0 -0.66,-4.5a2.08,2.08 0 0 0 -1.34,-0.87a2.36,2.36 0 0 0 -1.92,0.93a11.39,11.39 0 0 1 -1.48,1.62c-1,0.74 -2.36,0.79 -3.39,1.47c-0.72,0.48 -1.33,1.28 -2.19,1.27a1.75,1.75 0 0 1 -1.5,-1.33a4.65,4.65 0 0 1 0,-2.13a2,2 0 0 0 0,-0.91a1.48,1.48 0 0 0 -0.4,-0.59c-0.91,-0.87 -2.26,-1.16 -3.15,-2.05c-0.6,-0.62 -0.93,-1.47 -1.55,-2.07a6.86,6.86 0 0 0 -3.12,-1.38a20.51,20.51 0 0 1 -7.6,-4.1a6.37,6.37 0 0 1 -1.46,-1.65a5.12,5.12 0 0 1 -0.56,-2.28a8.43,8.43 0 0 1 1.05,-4.45z"/>
   <path stroke="null" id="svg_55" d="m861.15,101.7a3.16,3.16 0 0 1 1.83,-2.06c1.46,-0.58 3.38,-0.09 4.5,-1.13a2.15,2.15 0 0 1 -0.57,1.25c-1.11,1.19 -3.1,0.64 -4.61,1.24a3.06,3.06 0 0 0 -1.18,0.86l0.03,-0.16z"/>
  </g>
  <g stroke="null" id="svg_56" opacity="0.1">
   <path stroke="null" id="svg_57" d="m823.36,73.92l-1.77,2.78s-14.41,3.75 -13.82,4.76s1.61,-0.68 3.64,1.77s9.24,6.6 12.8,5.49s17,-5.27 16.9,-6.54s-17.75,-8.26 -17.75,-8.26z"/>
   <path stroke="null" id="svg_58" d="m848.06,56.57c-4.65,-0.83 -20,-2 -26.46,16.76l0,3.37l18.61,6s24.48,6.48 26.5,0a21.79,21.79 0 0 0 0.89,-6.06a20.09,20.09 0 0 0 -7.66,-16.36a15.7,15.7 0 0 0 -9.06,-3.4a19.11,19.11 0 0 1 -2.82,-0.31z"/>
  </g>
  <path stroke="null" id="svg_59" fill="#65617d" d="m823.36,73.58l-1.76,2.8s-14.41,3.75 -13.81,4.76s1.61,-0.68 3.64,1.77s9.24,6.6 12.8,5.49s17,-5.27 16.9,-6.54s-17.77,-8.28 -17.77,-8.28z"/>
  <path stroke="null" id="svg_60" fill="#65617d" d="m848.06,56.23c-4.65,-0.83 -20,-2 -26.46,16.76l0,3.39l18.62,6s24.48,6.48 26.5,0a21.79,21.79 0 0 0 0.89,-6.06a20.07,20.07 0 0 0 -7.67,-16.36a15.64,15.64 0 0 0 -9.06,-3.4a19.11,19.11 0 0 1 -2.82,-0.33z"/>
  <circle stroke="null" id="svg_61" fill="#dde1eb" r="1.69" cy="79.38" cx="857.41"/>
  <circle stroke="null" id="svg_62" fill="#dde1eb" r="1.69" cy="77.19" cx="846.31"/>
  <path stroke="null" id="svg_63" opacity="0.1" d="m840.22,82.37s-15,-1.84 -18.62,-6"/>
  <circle stroke="null" id="svg_64" opacity="0.1" r="1.01" cy="56.71" cx="848.98"/>
  <circle stroke="null" id="svg_65" fill="#65617d" r="1.01" cy="56.37" cx="848.98"/>
  <path stroke="null" id="svg_66" opacity="0.1" d="m847.97,56.37s-4.74,1 -4.85,1.33"/>
  <path stroke="null" id="svg_67" opacity="0.1" d="m849.99,56.37s3,1.31 3,1.88"/>
  <path stroke="null" id="svg_68" opacity="0.1" d="m848.98,57.38s0.24,1.94 -0.27,2.28"/>
  <path stroke="null" id="svg_69" opacity="0.1" d="m865.4,125.35s-9,-2.19 -15.3,0s-19.13,-2.52 -19.13,-2.52"/>
  <path stroke="null" id="svg_70" fill="#7b7bdb" d="m799.23,116.86s-9.13,8.48 -10.94,10.51a107.64,107.64 0 0 0 -6.08,9s-3,2.44 -3,5.51s-3.27,3.08 -3.27,3.08s4.42,13.43 2.51,16.71s10.6,-8.49 13,-9.11s1.57,-5.42 3,-10.7s4.78,-25 4.78,-25z"/>
  <path stroke="null" id="svg_71" opacity="0.1" d="m803.86,127.49c-0.28,0.68 -10.71,10.18 -9.8,13.9s-9.54,18.31 -9.54,18.31"/>
  <path stroke="null" id="svg_72" opacity="0.1" d="m701.15,221.31c3.28,3 19.54,3 19.54,3c4.63,1.46 44,6.49 44,6.49s-14.58,-8 -22.54,-8.55s-41,-0.94 -41,-0.94z"/>
  <path stroke="null" id="svg_73" opacity="0.1" d="m633.51,400.58l0,87.73c-19.84,-8.4 -42.93,-10.47 -56.26,14.52c-26.81,50.26 -73.34,-19 -73.34,-19s-18.24,-23.83 -65.9,3.73c-33,19.06 -81.62,10.68 -108.47,3.7l0,-107.83c23.31,16.14 63,39.11 81.3,23.35c16.32,-14.06 46.33,-2.29 67.29,9.06a17.25,17.25 0 0 0 25,-11.55c3,-13.92 10.4,-26.49 28.3,-17.24c23.33,12.03 73.16,13.65 102.08,13.53z"/>
  <path stroke="null" id="svg_74" opacity="0.1" d="m633.51,396.58l0,87.73c-19.84,-8.4 -42.93,-10.47 -56.26,14.52c-26.81,50.26 -73.34,-19 -73.34,-19s-18.24,-23.83 -65.9,3.73c-33,19.06 -81.62,10.68 -108.47,3.7l0,-107.83c23.31,16.14 63,39.11 81.3,23.35c16.32,-14.06 46.33,-2.29 67.29,9.06a17.25,17.25 0 0 0 25,-11.55c3,-13.92 10.4,-26.49 28.3,-17.24c23.33,12.03 73.16,13.65 102.08,13.53z"/>
  <path stroke="null" id="svg_75" fill="#6c63ff" d="m633.51,398.58l0,87.73c-19.84,-8.4 -42.93,-10.47 -56.26,14.52c-26.81,50.26 -73.34,-19 -73.34,-19s-18.24,-23.83 -65.9,3.73c-33,19.06 -81.62,10.68 -108.47,3.7l0,-107.83c23.31,16.14 63,39.11 81.3,23.35c16.32,-14.06 46.33,-2.29 67.29,9.06a17.25,17.25 0 0 0 25,-11.55c3,-13.92 10.4,-26.49 28.3,-17.24c23.33,12.03 73.16,13.65 102.08,13.53z"/>
  <path stroke="null" id="svg_76" opacity="0.1" fill="#fff" d="m360.87,631.09l0,-346.87a59,59 0 0 1 59,-59l-31.28,0a59,59 0 0 0 -59,59l0,346.87a90.38,90.38 0 0 0 90.39,90.38l31.33,0a90.38,90.38 0 0 1 -90.44,-90.38z"/>
  <path stroke="null" id="svg_77" opacity="0.1" d="m608.75,242.7l-0.07,1.94s-42.88,17 -130,19.25s-132,-19.25 -132,-19.25l-0.15,-1.85a59.62,59.62 0 0 1 12.12,-9.46c16,7.48 49.94,16.16 120.17,14.36c62.86,-1.61 95.69,-9.23 112.7,-16.06a71.5,71.5 0 0 1 17.23,11.07z"/>
  <ellipse stroke="null" id="svg_78" fill="#c8cbd8" ry="30.81" rx="121.07" cy="224.87" cx="474.6"/>
  <path stroke="null" id="svg_79" fill="#535461" d="m503.26,218.26s69,-9.49 56.12,13.68s-56.12,4.76 -56.12,4.76l0,-18.44z"/>
  <path stroke="null" id="svg_80" opacity="0.1" d="m475.59,204.44c60.84,-2.26 111.65,8.73 120.81,25.15a11.08,11.08 0 0 0 1.1,-5.09c-0.72,-19.13 -55.46,-32.63 -122.28,-30.15s-120.42,20 -119.71,39.14a11.09,11.09 0 0 0 1.47,5c7.94,-17.06 57.8,-31.79 118.61,-34.05z"/>
  <path stroke="null" id="svg_81" fill="#dde1eb" d="m344.94,222.7s5.86,-38.53 127.6,-35.74c0,0 115,-7.54 137.07,31.27l-13.56,16.37s6.89,-41.19 -122.67,-32.53s-113.25,30.43 -113.25,30.43l-2.35,4.2l-12.84,-14z"/>
  <path stroke="null" id="svg_82" fill="#e8eaf1" d="m492.37,212.1c-10.33,0 -18.7,7.05 -18.7,15.75s8.37,15.76 18.7,15.76s18.71,-7.06 18.71,-15.76s-8.37,-15.75 -18.71,-15.75zm0,24.92c-6,0 -10.89,-4.1 -10.89,-9.17s4.88,-9.17 10.89,-9.17s10.89,4.11 10.89,9.17s-4.87,9.17 -10.89,9.17z"/>
  <polygon stroke="null" id="svg_83" fill="#535461" points="423.64 212.72 423.52 212.74 423.03 212.82 422.75 212.87 422.54 212.9 422.26 212.95 421.76 213.03 421.56 213.07 421.06 213.15 420.78 213.2 420.57 213.23 420.29 213.28 420.08 213.31 419.8 213.36 419.31 213.44 419.1 213.48 418.61 213.56 418.33 213.61 418.12 213.64 417.84 213.69 417.63 213.72 417.35 213.77 417.14 213.81 416.86 213.85 416.65 213.89 416.16 213.97 415.87 214.02 415.67 214.05 415.38 214.1 415.18 214.13 414.89 214.18 414.68 214.22 414.4 214.26 414.19 214.3 413.91 214.35 413.7 214.38 413.42 214.43 413.21 214.46 412.93 214.51 412.72 214.55 412.44 214.59 412.23 214.63 411.95 214.67 411.74 214.71 411.46 214.76 411.25 214.79 410.97 214.84 410.76 214.87 410.48 214.92 410.27 214.96 409.99 215 409.78 215.04 409.49 215.09 409.29 215.12 409 215.17 408.8 215.2 408.51 215.25 408.3 215.29 408.02 215.33 407.81 215.37 407.53 215.41 407.32 215.45 407.04 213.77 406.66 211.5 406.9 211.46 407.15 211.42 407.39 211.38 407.64 211.34 407.88 211.3 409.12 211.09 409.36 211.05 409.61 211.01 409.85 210.97 410.1 210.93 410.34 210.89 411.08 210.76 411.32 210.72 411.57 210.68 411.81 210.64 412.06 210.6 412.3 210.56 412.55 210.52 412.79 210.48 413.53 210.35 413.77 210.31 414.02 210.27 414.26 210.23 414.51 210.19 414.76 210.15 415.5 210.02 415.74 209.98 415.99 209.94 416.23 209.9 416.48 209.86 416.72 209.82 416.97 209.78 417.21 209.74 417.95 209.61 418.19 209.57 418.44 209.53 418.68 209.49 418.93 209.45 419.17 209.41 419.42 209.37 419.66 209.33 419.91 209.28 420.15 209.24 420.4 209.2 420.64 209.16 420.89 209.12 421.14 209.08 421.39 209.04 421.63 209 422.37 208.87 422.61 208.83 422.86 208.79 422.98 208.77 423.36 211.04 423.64 212.72"/>
  <polygon stroke="null" id="svg_84" opacity="0.1" points="407.53 215.41 407.32 215.45 407.04 213.77 406.66 211.5 406.9 211.46 407.26 213.74 407.53 215.41"/>
  <polygon stroke="null" id="svg_85" opacity="0.1" points="408.02 215.33 407.81 215.37 407.53 213.69 407.15 211.42 407.39 211.38 407.75 213.65 408.02 215.33"/>
  <polygon stroke="null" id="svg_86" opacity="0.1" points="408.51 215.25 408.3 215.29 408.02 213.61 407.64 211.34 407.88 211.3 408.24 213.57 408.51 215.25"/>
  <polygon stroke="null" id="svg_87" opacity="0.1" points="408.38 211.22 409.01 215.17 408.8 215.21 408.14 211.26 408.38 211.22"/>
  <polygon stroke="null" id="svg_88" opacity="0.1" points="408.87 211.14 409.5 215.09 409.29 215.12 408.63 211.18 408.87 211.14"/>
  <polygon stroke="null" id="svg_89" opacity="0.1" points="409.99 215 409.78 215.04 409.5 213.36 409.12 211.09 409.36 211.05 409.72 213.32 409.99 215"/>
  <polygon stroke="null" id="svg_90" opacity="0.1" points="410.48 214.92 410.27 214.96 409.99 213.28 409.61 211.01 409.85 210.97 410.21 213.24 410.48 214.92"/>
  <polygon stroke="null" id="svg_91" opacity="0.1" points="410.97 214.84 410.76 214.87 410.48 213.2 410.1 210.93 410.34 210.89 410.7 213.16 410.97 214.84"/>
  <polygon stroke="null" id="svg_92" opacity="0.1" points="410.83 210.81 411.46 214.76 411.25 214.8 410.59 210.85 410.83 210.81"/>
  <polygon stroke="null" id="svg_93" opacity="0.1" points="411.95 214.67 411.74 214.71 411.46 213.03 411.08 210.76 411.32 210.72 411.68 213 411.95 214.67"/>
  <polygon stroke="null" id="svg_94" opacity="0.1" points="412.44 214.59 412.23 214.63 411.95 212.95 411.57 210.68 411.81 210.64 412.17 212.91 412.44 214.59"/>
  <polygon stroke="null" id="svg_95" opacity="0.1" points="412.93 214.51 412.72 214.55 412.44 212.87 412.06 210.6 412.3 210.56 412.66 212.83 412.93 214.51"/>
  <polygon stroke="null" id="svg_96" opacity="0.1" points="413.42 214.43 413.21 214.46 412.93 212.79 412.55 210.52 412.79 210.48 413.15 212.75 413.42 214.43"/>
  <polygon stroke="null" id="svg_97" opacity="0.1" points="413.29 210.4 413.91 214.35 413.71 214.38 413.05 210.44 413.29 210.4"/>
  <polygon stroke="null" id="svg_98" opacity="0.1" points="414.4 214.26 414.19 214.3 413.91 212.62 413.53 210.35 413.77 210.31 414.13 212.59 414.4 214.26"/>
  <polygon stroke="null" id="svg_99" opacity="0.1" points="414.89 214.18 414.68 214.22 414.4 212.54 414.02 210.27 414.26 210.23 414.62 212.5 414.89 214.18"/>
  <polygon stroke="null" id="svg_100" opacity="0.1" points="415.38 214.1 415.18 214.13 414.9 212.46 414.51 210.19 414.76 210.15 415.12 212.42 415.38 214.1"/>
  <polygon stroke="null" id="svg_101" opacity="0.1" points="415.25 210.07 415.88 214.02 415.67 214.06 415.01 210.11 415.25 210.07"/>
  <polygon stroke="null" id="svg_102" opacity="0.1" points="416.37 213.93 416.16 213.97 415.88 212.29 415.5 210.02 415.74 209.98 416.1 212.26 416.37 213.93"/>
  <polygon stroke="null" id="svg_103" opacity="0.1" points="416.86 213.85 416.65 213.89 416.37 212.21 415.99 209.94 416.23 209.9 416.59 212.17 416.86 213.85"/>
  <polygon stroke="null" id="svg_104" opacity="0.1" points="417.35 213.77 417.14 213.81 416.86 212.13 416.48 209.86 416.72 209.82 417.08 212.09 417.35 213.77"/>
  <polygon stroke="null" id="svg_105" opacity="0.1" points="417.84 213.69 417.63 213.72 417.35 212.04 416.97 209.78 417.21 209.74 417.57 212.01 417.84 213.69"/>
  <polygon stroke="null" id="svg_106" opacity="0.1" points="417.7 209.66 418.33 213.61 418.12 213.65 417.46 209.7 417.7 209.66"/>
  <polygon stroke="null" id="svg_107" opacity="0.1" points="418.82 213.52 418.61 213.56 418.33 211.88 417.95 209.61 418.19 209.57 418.55 211.84 418.82 213.52"/>
  <polygon stroke="null" id="svg_108" opacity="0.1" points="419.31 213.44 419.1 213.48 418.82 211.8 418.44 209.53 418.68 209.49 419.04 211.76 419.31 213.44"/>
  <polygon stroke="null" id="svg_109" opacity="0.1" points="419.8 213.36 419.59 213.39 419.31 211.72 418.93 209.45 419.17 209.41 419.53 211.68 419.8 213.36"/>
  <polygon stroke="null" id="svg_110" opacity="0.1" points="420.29 213.28 420.08 213.31 419.8 211.63 419.42 209.37 419.66 209.33 420.02 211.6 420.29 213.28"/>
  <polygon stroke="null" id="svg_111" opacity="0.1" points="420.78 213.2 420.57 213.23 420.29 211.55 419.91 209.28 420.15 209.24 420.51 211.51 420.78 213.2"/>
  <polygon stroke="null" id="svg_112" opacity="0.1" points="421.27 213.11 421.06 213.15 420.78 211.47 420.4 209.2 420.64 209.16 421 211.43 421.27 213.11"/>
  <polygon stroke="null" id="svg_113" opacity="0.1" points="421.76 213.03 421.56 213.07 421.27 211.39 420.89 209.12 421.14 209.08 421.5 211.35 421.76 213.03"/>
  <polygon stroke="null" id="svg_114" opacity="0.1" points="422.26 212.95 422.05 212.98 421.77 211.3 421.39 209.04 421.63 209 421.99 211.27 422.26 212.95"/>
  <polygon stroke="null" id="svg_115" opacity="0.1" points="422.12 208.92 422.75 212.87 422.54 212.91 421.88 208.96 422.12 208.92"/>
  <polygon stroke="null" id="svg_116" opacity="0.1" points="423.24 212.78 423.03 212.82 422.75 211.14 422.37 208.87 422.61 208.83 422.97 211.1 423.24 212.78"/>
  <polygon stroke="null" id="svg_117" opacity="0.1" points="423.64 212.72 423.52 212.74 423.24 211.06 422.86 208.79 422.98 208.77 423.36 211.04 423.64 212.72"/>
  <path stroke="null" id="svg_118" fill="#e8eaf1" d="m487.12,213.56s-65.88,-39.35 -79.24,-11.75s60.78,33.63 69.5,31.49c0,0 -6.69,-14.34 9.74,-19.74zm-21.44,12c-5.39,1.32 -51.19,-2.41 -42.94,-19.47s49,7.26 49,7.26c-10.15,3.35 -6.06,12.18 -6.06,12.18l0,0.03z"/>
  <path stroke="null" id="svg_119" fill="#e8eaf1" d="m346.68,242.64s44.89,21.48 132,19.25s130,-19.25 130,-19.25l0.93,-24.38a8.57,8.57 0 0 0 -1.51,1.4c-5.14,5.59 -28.94,23.46 -129.28,26c-119.64,3.08 -133.88,-24.29 -133.88,-24.29l1.74,21.27z"/>
  <polygon stroke="null" id="svg_120" opacity="0.1" points="423.38 213.11 423.5 213.09 422.84 209.15 420.99 209.46 420.99 209.46 420.86 209.48 419.03 209.79 419.03 209.79 418.85 209.82 418.54 209.87 418.54 209.87 418.5 209.88 417.56 210.03 417.56 210.03 417.54 210.04 417.07 210.12 417.07 210.12 416.84 210.15 416.57 210.2 416.57 210.2 416.49 210.21 415.59 210.36 415.59 210.36 415.53 210.37 415.1 210.44 415.1 210.44 414.86 210.49 414.86 210.49 414.61 210.53 414.61 210.53 414.48 210.55 413.91 210.64 413.88 210.65 413.88 210.65 413.63 210.69 413.63 210.69 413.52 210.71 413.14 210.77 413.14 210.77 412.9 210.81 412.9 210.81 412.65 210.85 412.65 210.85 412.56 210.87 412.06 210.96 411.92 210.98 411.92 210.98 411.67 211.02 411.67 211.02 411.5 211.05 411.18 211.1 411.18 211.1 410.94 211.14 410.94 211.14 410.69 211.18 410.69 211.18 410.54 211.21 410.19 211.27 410.19 211.27 409.95 211.31 409.95 211.31 409.7 211.35 409.7 211.35 409.49 211.38 409.21 211.43 409.21 211.43 408.97 211.47 408.97 211.47 408.72 211.51 408.72 211.51 408.53 211.54 408.23 211.59 408.23 211.59 407.99 211.64 407.99 211.64 407.74 211.68 407.74 211.68 407.5 211.72 407.5 211.72 407.25 211.76 407.25 211.76 407.01 211.8 407.01 211.8 406.76 211.84 406.76 211.84 406.52 211.88 407.18 215.83 407.8 215.72 407.88 215.71 407.88 215.71 408.16 215.66 408.16 215.66 408.28 215.64 408.8 215.56 408.86 215.55 408.86 215.55 409.14 215.5 409.14 215.5 409.18 215.49 409.72 215.4 409.84 215.38 409.84 215.38 410.13 215.33 410.13 215.33 410.31 215.3 410.72 215.24 410.82 215.22 410.82 215.22 411.11 215.17 411.11 215.17 411.17 215.16 411.64 215.08 411.81 215.05 411.81 215.05 412.09 215 412.09 215 412.22 214.98 412.64 214.91 412.79 214.89 412.79 214.89 413.07 214.84 413.07 214.84 413.17 214.82 413.56 214.76 413.56 214.76 413.77 214.72 413.77 214.72 414.05 214.68 414.05 214.68 414.26 214.64 414.26 214.64 414.56 214.59 414.75 214.56 414.75 214.56 415.03 214.51 415.03 214.51 415.14 214.49 415.52 214.43 415.52 214.43 415.73 214.4 415.73 214.4 416.01 214.35 416.01 214.35 416.22 214.31 416.22 214.31 416.5 214.26 416.5 214.26 416.71 214.23 416.71 214.23 417 214.18 417 214.18 417.13 214.16 417.49 214.1 417.49 214.1 417.69 214.07 417.69 214.07 417.98 214.02 417.98 214.02 418.19 213.98 418.19 213.98 418.47 213.94 418.47 213.94 418.68 213.9 418.68 213.9 418.96 213.85 418.96 213.85 419.12 213.83 419.45 213.77 419.45 213.77 419.66 213.74 419.66 213.74 419.94 213.69 419.94 213.69 420.15 213.66 420.15 213.66 420.43 213.61 420.43 213.61 420.64 213.57 420.64 213.57 420.92 213.53 420.92 213.53 421.1 213.5 421.41 213.44 421.41 213.44 421.62 213.41 421.62 213.41 421.9 213.36 421.9 213.36 422.11 213.33 422.11 213.33 422.39 213.28 422.39 213.28 422.6 213.24 422.6 213.24 422.88 213.2 422.88 213.2 423.09 213.16 423.38 213.11 423.38 213.11"/>
  <rect stroke="null" id="svg_121" fill="#535461" transform="matrix(0.99,-0.17,0.17,0.99,-74.45,28.05) " height="4" width="16.54" y="259.79" x="444.15"/>
  <polygon stroke="null" id="svg_122" opacity="0.1" points="406.76 210.84 407.39 214.79 407.18 214.83 406.52 210.88 406.76 210.84"/>
  <polygon stroke="null" id="svg_123" opacity="0.1" points="407.25 210.76 407.88 214.71 407.67 214.75 407.01 210.8 407.25 210.76"/>
  <polygon stroke="null" id="svg_124" opacity="0.1" points="407.74 210.68 408.37 214.63 408.16 214.66 407.5 210.72 407.74 210.68"/>
  <polygon stroke="null" id="svg_125" opacity="0.1" points="408.23 210.59 408.86 214.55 408.65 214.58 407.99 210.64 408.23 210.59"/>
  <polygon stroke="null" id="svg_126" opacity="0.1" points="408.72 210.51 409.35 214.46 409.14 214.5 408.48 210.55 408.72 210.51"/>
  <polygon stroke="null" id="svg_127" opacity="0.1" points="409.21 210.43 409.84 214.38 409.63 214.42 408.97 210.47 409.21 210.43"/>
  <polygon stroke="null" id="svg_128" opacity="0.1" points="409.7 210.35 410.33 214.3 410.13 214.33 409.46 210.39 409.7 210.35"/>
  <polygon stroke="null" id="svg_129" opacity="0.1" points="410.19 210.27 410.82 214.22 410.62 214.25 409.95 210.31 410.19 210.27"/>
  <polygon stroke="null" id="svg_130" opacity="0.1" points="410.69 210.18 411.31 214.13 411.11 214.17 410.45 210.22 410.69 210.18"/>
  <polygon stroke="null" id="svg_131" opacity="0.1" points="411.18 210.1 411.81 214.05 411.6 214.09 410.94 210.14 411.18 210.1"/>
  <polygon stroke="null" id="svg_132" opacity="0.1" points="411.67 210.02 412.3 213.97 412.09 214 411.43 210.06 411.67 210.02"/>
  <polygon stroke="null" id="svg_133" opacity="0.1" points="412.16 209.94 412.79 213.89 412.58 213.92 411.92 209.98 412.16 209.94"/>
  <polygon stroke="null" id="svg_134" opacity="0.1" points="412.65 209.85 413.28 213.81 413.07 213.84 412.41 209.9 412.65 209.85"/>
  <polygon stroke="null" id="svg_135" opacity="0.1" points="413.14 209.77 413.77 213.72 413.56 213.76 412.9 209.81 413.14 209.77"/>
  <polygon stroke="null" id="svg_136" opacity="0.1" points="413.63 209.69 414.26 213.64 414.05 213.68 413.39 209.73 413.63 209.69"/>
  <polygon stroke="null" id="svg_137" opacity="0.1" points="414.12 209.61 414.75 213.56 414.54 213.59 413.88 209.65 414.12 209.61"/>
  <polygon stroke="null" id="svg_138" opacity="0.1" points="414.61 209.53 415.24 213.48 415.03 213.51 414.37 209.57 414.61 209.53"/>
  <polygon stroke="null" id="svg_139" opacity="0.1" points="415.1 209.44 415.73 213.4 415.52 213.43 414.86 209.49 415.1 209.44"/>
  <polygon stroke="null" id="svg_140" opacity="0.1" points="415.59 209.36 416.22 213.31 416.01 213.35 415.35 209.4 415.59 209.36"/>
  <polygon stroke="null" id="svg_141" opacity="0.1" points="416.08 209.28 416.71 213.23 416.5 213.26 415.84 209.32 416.08 209.28"/>
  <polygon stroke="null" id="svg_142" opacity="0.1" points="416.57 209.2 417.2 213.15 417 213.18 416.33 209.24 416.57 209.2"/>
  <polygon stroke="null" id="svg_143" opacity="0.1" points="417.07 209.12 417.69 213.07 417.49 213.1 416.83 209.16 417.07 209.12"/>
  <polygon stroke="null" id="svg_144" opacity="0.1" points="417.56 209.03 418.19 212.98 417.98 213.02 417.32 209.07 417.56 209.03"/>
  <polygon stroke="null" id="svg_145" opacity="0.1" points="418.05 208.95 418.68 212.9 418.47 212.94 417.81 208.99 418.05 208.95"/>
  <polygon stroke="null" id="svg_146" opacity="0.1" points="418.54 208.87 419.17 212.82 418.96 212.85 418.3 208.91 418.54 208.87"/>
  <polygon stroke="null" id="svg_147" opacity="0.1" points="419.03 208.79 419.66 212.74 419.45 212.77 418.79 208.83 419.03 208.79"/>
  <polygon stroke="null" id="svg_148" opacity="0.1" points="419.52 208.7 420.15 212.66 419.94 212.69 419.28 208.75 419.52 208.7"/>
  <polygon stroke="null" id="svg_149" opacity="0.1" points="420.01 208.62 420.64 212.57 420.43 212.61 419.77 208.66 420.01 208.62"/>
  <polygon stroke="null" id="svg_150" opacity="0.1" points="420.5 208.54 421.13 212.49 420.92 212.53 420.26 208.58 420.5 208.54"/>
  <polygon stroke="null" id="svg_151" opacity="0.1" points="420.99 208.46 421.62 212.41 421.41 212.44 420.75 208.5 420.99 208.46"/>
  <polygon stroke="null" id="svg_152" opacity="0.1" points="421.48 208.38 422.11 212.33 421.9 212.36 421.24 208.42 421.48 208.38"/>
  <polygon stroke="null" id="svg_153" opacity="0.1" points="421.97 208.29 422.6 212.24 422.39 212.28 421.73 208.33 421.97 208.29"/>
  <polygon stroke="null" id="svg_154" opacity="0.1" points="422.46 208.21 423.09 212.16 422.88 212.2 422.22 208.25 422.46 208.21"/>
  <rect stroke="null" id="svg_155" opacity="0.1" transform="matrix(0.99,-0.17,0.17,0.99,-74.11,29.37) " height="4" width="0.12" y="258.43" x="460.45"/>
  <polygon stroke="null" id="svg_156" opacity="0.1" points="423.36 211.04 423.24 211.06 422.97 211.1 422.75 211.14 422.48 211.19 422.26 211.22 421.99 211.27 421.77 211.3 421.5 211.35 421.27 211.39 421 211.43 420.78 211.47 420.51 211.51 420.29 211.55 420.02 211.6 419.8 211.63 419.53 211.68 419.31 211.72 419.04 211.76 418.82 211.8 418.55 211.84 418.33 211.88 418.06 211.92 417.84 211.96 417.57 212.01 417.35 212.04 417.08 212.09 416.89 212.12 416.86 212.13 416.59 212.17 416.37 212.21 416.1 212.26 415.9 212.29 415.88 212.29 415.61 212.34 415.39 212.38 415.12 212.42 414.9 212.46 414.62 212.5 414.4 212.54 414.13 212.59 413.91 212.62 413.64 212.67 413.42 212.71 413.15 212.75 412.93 212.79 412.66 212.83 412.44 212.87 412.17 212.91 411.95 212.95 411.68 213 411.46 213.03 411.19 213.08 410.97 213.12 410.7 213.16 410.48 213.2 410.21 213.24 409.99 213.28 409.72 213.32 409.5 213.36 409.23 213.41 409.01 213.44 408.73 213.49 408.52 213.53 408.24 213.57 408.02 213.61 407.75 213.65 407.53 213.69 407.26 213.74 407.04 213.77 406.66 211.5 406.9 211.46 407.15 211.42 407.39 211.38 407.64 211.34 407.88 211.3 409.12 211.09 409.36 211.05 409.61 211.01 409.85 210.97 410.1 210.93 410.34 210.89 411.08 210.76 411.32 210.72 411.57 210.68 411.81 210.64 412.06 210.6 412.3 210.56 412.55 210.52 412.79 210.48 413.53 210.35 413.77 210.31 414.02 210.27 414.26 210.23 414.51 210.19 414.76 210.15 415.5 210.02 415.74 209.98 415.99 209.94 416.23 209.9 416.48 209.86 416.72 209.82 416.97 209.78 417.21 209.74 417.95 209.61 418.19 209.57 418.44 209.53 418.68 209.49 418.93 209.45 419.17 209.41 419.42 209.37 419.66 209.33 419.91 209.28 420.15 209.24 420.4 209.2 420.64 209.16 420.89 209.12 421.14 209.08 421.39 209.04 421.63 209 422.37 208.87 422.61 208.83 422.86 208.79 422.98 208.77 423.36 211.04"/>
  <path stroke="null" id="svg_157" fill="#535461" d="m768.37,148.19l0.66,3.94l-362.63,60.75l-0.43,-2.55a1.54,1.54 0 0 1 1.37,-1.66l361.03,-60.48z"/>
  <path stroke="null" id="svg_158" opacity="0.1" d="m411.09,208.04l-0.05,4.07l-4.64,0.77l-0.46,-2.75a1.31,1.31 0 0 1 1.18,-1.42l3.97,-0.67z"/>
  <polygon stroke="null" id="svg_159" opacity="0.1" points="422 206.21 421.95 210.28 417.32 211.05 416.65 207.11 422 206.21"/>
  <polygon stroke="null" id="svg_160" opacity="0.1" points="432.9 204.39 432.86 208.45 428.22 209.23 427.56 205.28 432.9 204.39"/>
  <polygon stroke="null" id="svg_161" opacity="0.1" points="443.81 202.56 443.76 206.62 439.13 207.4 438.47 203.45 443.81 202.56"/>
  <polygon stroke="null" id="svg_162" opacity="0.1" points="454.72 200.73 454.67 204.8 450.03 205.57 449.37 201.63 454.72 200.73"/>
  <polygon stroke="null" id="svg_163" opacity="0.1" points="465.63 198.9 465.58 202.97 460.94 203.75 460.28 199.8 465.63 198.9"/>
  <polygon stroke="null" id="svg_164" opacity="0.1" points="476.53 197.08 476.49 201.14 471.85 201.92 471.19 197.97 476.53 197.08"/>
  <polygon stroke="null" id="svg_165" opacity="0.1" points="487.44 195.25 487.39 199.31 482.76 200.09 482.1 196.15 487.44 195.25"/>
  <polygon stroke="null" id="svg_166" opacity="0.1" points="498.35 193.42 498.3 197.49 493.66 198.26 493 194.32 498.35 193.42"/>
  <polygon stroke="null" id="svg_167" opacity="0.1" points="509.26 191.59 509.21 195.66 504.57 196.44 503.91 192.49 509.26 191.59"/>
  <polygon stroke="null" id="svg_168" opacity="0.1" points="520.16 189.77 520.12 193.83 515.48 194.61 514.81 190.66 520.16 189.77"/>
  <polygon stroke="null" id="svg_169" opacity="0.1" points="531.06 187.94 531.02 192 526.39 192.78 525.73 188.84 531.06 187.94"/>
  <polygon stroke="null" id="svg_170" opacity="0.1" points="541.98 186.11 541.92 190.18 537.29 190.96 536.63 187.01 541.98 186.11"/>
  <polygon stroke="null" id="svg_171" opacity="0.1" points="552.89 184.29 552.84 188.35 548.2 189.13 547.54 185.18 552.89 184.29"/>
  <polygon stroke="null" id="svg_172" opacity="0.1" points="563.79 182.46 563.75 186.52 559.1 187.3 558.44 183.35 563.79 182.46"/>
  <polygon stroke="null" id="svg_173" opacity="0.1" points="574.69 180.63 574.65 184.7 570.02 185.47 569.36 181.53 574.69 180.63"/>
  <polygon stroke="null" id="svg_174" opacity="0.1" points="585.61 178.81 585.55 182.87 580.92 183.65 580.26 179.7 585.61 178.81"/>
  <polygon stroke="null" id="svg_175" opacity="0.1" points="596.52 176.98 596.47 181.04 591.83 181.82 591.17 177.87 596.52 176.98"/>
  <polygon stroke="null" id="svg_176" opacity="0.1" points="607.42 175.15 607.38 179.21 602.73 179.99 602.07 176.05 607.42 175.15"/>
  <polygon stroke="null" id="svg_177" opacity="0.1" points="618.32 173.32 618.28 177.39 613.64 178.16 612.98 174.22 618.32 173.32"/>
  <polygon stroke="null" id="svg_178" opacity="0.1" points="629.23 171.5 629.18 175.56 624.55 176.34 623.88 172.39 629.23 171.5"/>
  <polygon stroke="null" id="svg_179" opacity="0.1" points="640.15 169.67 640.09 173.73 635.46 174.51 634.8 170.56 640.15 169.67"/>
  <polygon stroke="null" id="svg_180" opacity="0.1" points="651.05 167.84 651.01 171.9 646.36 172.68 645.7 168.74 651.05 167.84"/>
  <polygon stroke="null" id="svg_181" opacity="0.1" points="661.95 166.01 661.91 170.08 657.27 170.85 656.61 166.91 661.95 166.01"/>
  <polygon stroke="null" id="svg_182" opacity="0.1" points="672.86 164.19 672.81 168.25 668.17 169.03 667.51 165.08 672.86 164.19"/>
  <polygon stroke="null" id="svg_183" opacity="0.1" points="683.77 162.36 683.72 166.42 679.09 167.2 678.43 163.25 683.77 162.36"/>
  <polygon stroke="null" id="svg_184" opacity="0.1" points="694.68 160.53 694.63 164.59 689.99 165.37 689.33 161.43 694.68 160.53"/>
  <polygon stroke="null" id="svg_185" opacity="0.1" points="705.58 158.71 705.54 162.77 700.9 163.54 700.24 159.6 705.58 158.71"/>
  <polygon stroke="null" id="svg_186" opacity="0.1" points="716.49 156.88 716.44 160.94 711.8 161.72 711.14 157.77 716.49 156.88"/>
  <polygon stroke="null" id="svg_187" opacity="0.1" points="727.4 155.05 727.35 159.11 722.72 159.89 722.05 155.94 727.4 155.05"/>
  <polygon stroke="null" id="svg_188" opacity="0.1" points="738.3 153.22 738.26 157.29 733.62 158.06 732.96 154.12 738.3 153.22"/>
  <polygon stroke="null" id="svg_189" opacity="0.1" points="749.21 151.4 749.16 155.46 744.53 156.24 743.87 152.29 749.21 151.4"/>
  <polygon stroke="null" id="svg_190" opacity="0.1" points="760.12 149.57 760.07 153.63 755.43 154.41 754.77 150.47 760.12 149.57"/>
  <rect stroke="null" id="svg_191" opacity="0.1" transform="rotate(-9.510000228881836 -59.50999832153338,85.43000030517577) " height="4" width="2.72" y="284.11" x="743.9"/>
  <path stroke="null" id="svg_192" fill="#fbbebe" d="m840.59,191.88l-3.22,4.91l-11.78,6.85s-3.49,2.83 -10.62,-5.07c-3.41,-3.78 -7.4,-7.57 -10.62,-10.48a61.36,61.36 0 0 1 -10.47,-12.32c-2.72,-4.22 -6.06,-9.08 -8,-10.69a39.76,39.76 0 0 1 -6,-6.31s-24.84,-3.24 -19.66,-11.83c2.9,-4.81 8.44,-5.34 12.75,-4.87a13.18,13.18 0 0 1 8.62,4.63a42.1,42.1 0 0 0 4.92,5.18a14.43,14.43 0 0 1 3.85,5.3l9.64,7.67s14.77,9 17.37,11.71s8.13,4.51 8.13,4.51l15.09,10.81z"/>
  <path stroke="null" id="svg_193" opacity="0.1" d="m848.88,183.4l-1.67,5.3s-7.79,7.84 -8.81,8.74s-15,-13.75 -15.6,-17.7s2.93,-3.51 4.06,-4.86s3.94,-4.07 4.28,-5.65s3.32,-5.09 4.65,-6.11s2.11,-2.93 2.9,-5.19s3.27,-1.93 4.06,-2s9.91,-18.3 16.91,-16.85s10.39,3.38 10.39,3.38l-21.17,40.94z"/>
  <path stroke="null" id="svg_194" fill="#7b7bdb" d="m849.59,183.7l-1.67,5.26s-7.79,7.85 -8.81,8.75s-15,-13.75 -15.6,-17.7s2.93,-3.51 4.05,-4.86s3.95,-4.07 4.29,-5.65s3.32,-5.09 4.64,-6.11s2.12,-2.94 2.91,-5.19s3.27,-1.93 4.06,-2s9.91,-18.31 16.91,-16.85s10.36,3.35 10.36,3.35l-21.14,41z"/>
  <rect stroke="null" id="svg_195" fill="#535461" transform="rotate(-44.90999984741211 58.00000000000005,573.97998046875) " height="4" width="16.54" y="768.67998" x="852.77"/>
  <polygon stroke="null" id="svg_196" opacity="0.1" points="758.54 150.65 761.34 153.51 761.19 153.66 758.37 150.82 758.54 150.65"/>
  <polygon stroke="null" id="svg_197" opacity="0.1" points="758.89 150.3 761.69 153.15 761.54 153.3 758.72 150.47 758.89 150.3"/>
  <polygon stroke="null" id="svg_198" opacity="0.1" points="759.24 149.95 762.04 152.8 761.89 152.95 759.07 150.12 759.24 149.95"/>
  <polygon stroke="null" id="svg_199" opacity="0.1" points="759.6 149.6 762.4 152.45 762.25 152.6 759.42 149.77 759.6 149.6"/>
  <polygon stroke="null" id="svg_200" opacity="0.1" points="759.95 149.25 762.75 152.1 762.6 152.25 759.78 149.42 759.95 149.25"/>
  <polygon stroke="null" id="svg_201" opacity="0.1" points="760.3 148.89 763.1 151.75 762.95 151.9 760.13 149.06 760.3 148.89"/>
  <polygon stroke="null" id="svg_202" opacity="0.1" points="760.65 148.54 763.46 151.4 763.3 151.55 760.48 148.71 760.65 148.54"/>
  <polygon stroke="null" id="svg_203" opacity="0.1" points="761.01 148.19 763.81 151.05 763.66 151.2 760.83 148.36 761.01 148.19"/>
  <polygon stroke="null" id="svg_204" opacity="0.1" points="761.36 147.84 764.16 150.7 764.01 150.84 761.19 148.01 761.36 147.84"/>
  <polygon stroke="null" id="svg_205" opacity="0.1" points="761.71 147.49 764.51 150.34 764.36 150.49 761.54 147.66 761.71 147.49"/>
  <polygon stroke="null" id="svg_206" opacity="0.1" points="762.06 147.14 764.86 149.99 764.71 150.14 761.89 147.31 762.06 147.14"/>
  <polygon stroke="null" id="svg_207" opacity="0.1" points="762.42 146.79 765.22 149.64 765.07 149.79 762.24 146.96 762.42 146.79"/>
  <polygon stroke="null" id="svg_208" opacity="0.1" points="762.77 146.43 765.57 149.29 765.42 149.44 762.6 146.61 762.77 146.43"/>
  <polygon stroke="null" id="svg_209" opacity="0.1" points="763.12 146.08 765.92 148.94 765.77 149.09 762.95 146.25 763.12 146.08"/>
  <polygon stroke="null" id="svg_210" opacity="0.1" points="763.47 145.73 766.27 148.59 766.12 148.74 763.3 145.9 763.47 145.73"/>
  <polygon stroke="null" id="svg_211" opacity="0.1" points="763.83 145.38 766.63 148.24 766.48 148.39 763.65 145.55 763.83 145.38"/>
  <polygon stroke="null" id="svg_212" opacity="0.1" points="764.18 145.03 766.98 147.88 766.83 148.03 764 145.2 764.18 145.03"/>
  <polygon stroke="null" id="svg_213" opacity="0.1" points="764.53 144.68 767.33 147.53 767.18 147.68 764.36 144.85 764.53 144.68"/>
  <polygon stroke="null" id="svg_214" opacity="0.1" points="764.88 144.33 767.68 147.18 767.53 147.33 764.71 144.5 764.88 144.33"/>
  <polygon stroke="null" id="svg_215" opacity="0.1" points="765.24 143.98 768.04 146.83 767.89 146.98 765.06 144.15 765.24 143.98"/>
  <polygon stroke="null" id="svg_216" opacity="0.1" points="765.59 143.62 768.39 146.48 768.24 146.63 765.41 143.8 765.59 143.62"/>
  <polygon stroke="null" id="svg_217" opacity="0.1" points="765.94 143.27 768.74 146.13 768.59 146.28 765.77 143.44 765.94 143.27"/>
  <polygon stroke="null" id="svg_218" opacity="0.1" points="766.29 142.92 769.09 145.78 768.94 145.93 766.12 143.09 766.29 142.92"/>
  <polygon stroke="null" id="svg_219" opacity="0.1" points="766.64 142.57 769.45 145.43 769.3 145.58 766.47 142.74 766.64 142.57"/>
  <polygon stroke="null" id="svg_220" opacity="0.1" points="767 142.22 769.8 145.07 769.65 145.22 766.83 142.39 767 142.22"/>
  <polygon stroke="null" id="svg_221" opacity="0.1" points="767.35 141.87 770.15 144.72 770 144.87 767.18 142.04 767.35 141.87"/>
  <polygon stroke="null" id="svg_222" opacity="0.1" points="767.7 141.52 770.5 144.37 770.35 144.52 767.53 141.69 767.7 141.52"/>
  <polygon stroke="null" id="svg_223" opacity="0.1" points="768.05 141.16 770.86 144.02 770.71 144.17 767.88 141.34 768.05 141.16"/>
  <polygon stroke="null" id="svg_224" opacity="0.1" points="768.41 140.81 771.21 143.67 771.06 143.82 768.24 140.99 768.41 140.81"/>
  <polygon stroke="null" id="svg_225" opacity="0.1" points="768.76 140.46 771.56 143.32 771.41 143.47 768.59 140.63 768.76 140.46"/>
  <polygon stroke="null" id="svg_226" opacity="0.1" points="769.11 140.11 771.91 142.97 771.76 143.12 768.94 140.28 769.11 140.11"/>
  <polygon stroke="null" id="svg_227" opacity="0.1" points="769.47 139.76 772.27 142.62 772.12 142.76 769.29 139.93 769.47 139.76"/>
  <polygon stroke="null" id="svg_228" opacity="0.1" points="769.82 139.41 772.62 142.26 772.47 142.41 769.64 139.58 769.82 139.41"/>
  <rect stroke="null" id="svg_229" opacity="0.1" transform="rotate(-44.90999984741211 63.790000915527344,576.4000244140625) " height="4" width="0.12" y="765.30002" x="872.59"/>
  <path stroke="null" id="svg_230" fill="#6c63ff" d="m561.4,199.92c-1.55,7.53 -9.64,16.47 -9.64,16.47s-2.79,-11.18 -1.24,-18.71s4.37,-7.78 7.37,-7.16s5.06,1.87 3.51,9.4z"/>
  <path stroke="null" id="svg_231" opacity="0.2" fill="#fff" d="m557.7,193.98s3.13,2.25 0.88,4.5l-0.88,-4.5z"/>
  <path stroke="null" id="svg_232" fill="#6c63ff" d="m542.04,157.7c-1.55,7.53 -9.65,16.47 -9.65,16.47s-2.78,-11.19 -1.23,-18.71s4.36,-7.78 7.37,-7.16s5.06,1.87 3.51,9.4z"/>
  <path stroke="null" id="svg_233" opacity="0.2" fill="#fff" d="m538.33,151.76s3.13,2.25 0.88,4.5l-0.88,-4.5z"/>
  <path stroke="null" id="svg_234" fill="#6c63ff" d="m499.93,162.52c3.67,6.76 3.23,18.81 3.23,18.81s-9.33,-6.76 -13,-13.51s-1.67,-8.76 1,-10.22s5.11,-1.83 8.77,4.92z"/>
  <path stroke="null" id="svg_235" opacity="0.2" fill="#fff" d="m493.27,160.36s3.84,-0.29 3.57,2.88l-3.57,-2.88z"/>
  <path stroke="null" id="svg_236" opacity="0.6" fill="#6c63ff" d="m504.29,110.35c3.67,6.76 3.24,18.81 3.24,18.81s-9.34,-6.76 -13,-13.51s-1.67,-8.76 1,-10.22s5.06,-1.83 8.76,4.92z"/>
  <path stroke="null" id="svg_237" opacity="0.2" fill="#fff" d="m497.64,108.19s3.84,-0.29 3.56,2.88l-3.56,-2.88z"/>
  <path stroke="null" id="svg_238" fill="#6c63ff" d="m480.97,239.57c7.39,-2.11 19.07,0.92 19.07,0.92s-8.62,7.65 -16,9.76s-8.91,-0.26 -9.76,-3.21s-0.69,-5.34 6.69,-7.47z"/>
  <path stroke="null" id="svg_239" opacity="0.2" fill="#fff" d="m477.42,245.61s0.55,-3.81 3.59,-2.86l-3.59,2.86z"/>
  <path stroke="null" id="svg_240" opacity="0.6" fill="#6c63ff" d="m325.59,188.05c7.39,-2.11 19.06,0.92 19.06,0.92s-8.62,7.65 -16,9.76s-8.92,-0.26 -9.76,-3.21s-0.67,-5.35 6.7,-7.47z"/>
  <path stroke="null" id="svg_241" opacity="0.2" fill="#fff" d="m322.06,194.09s0.55,-3.81 3.58,-2.86l-3.58,2.86z"/>
  <path stroke="null" id="svg_242" opacity="0.8" fill="#6c63ff" d="m292.29,220.4c7.39,-2.11 19.06,0.91 19.06,0.91s-8.62,7.65 -16,9.77s-8.91,-0.26 -9.75,-3.21s-0.7,-5.35 6.69,-7.47z"/>
  <path stroke="null" id="svg_243" opacity="0.2" fill="#fff" d="m288.74,226.44s0.54,-3.82 3.58,-2.87l-3.58,2.87z"/>
  <path stroke="null" id="svg_244" opacity="0.8" fill="#6c63ff" d="m407.76,124.37c7.39,-2.12 19.06,0.91 19.06,0.91s-8.61,7.65 -16,9.77s-8.91,-0.27 -9.76,-3.21s-0.69,-5.36 6.7,-7.47z"/>
  <path stroke="null" id="svg_245" opacity="0.2" fill="#fff" d="m404.21,130.4s0.55,-3.81 3.59,-2.86l-3.59,2.86z"/>
  <path stroke="null" id="svg_246" opacity="0.6" fill="#6c63ff" d="m287.17,310.15c-0.29,-7.68 5.43,-18.3 5.43,-18.3s5.38,10.2 5.67,17.88s-2.38,8.59 -5.44,8.71s-5.37,-0.61 -5.66,-8.29z"/>
  <path stroke="null" id="svg_247" opacity="0.2" fill="#fff" d="m292.19,315.03s-3.58,-1.44 -1.93,-4.16l1.93,4.16z"/>
  <path stroke="null" id="svg_248" opacity="0.6" fill="#6c63ff" d="m165.2,310.15c-0.29,-7.68 5.44,-18.3 5.44,-18.3s5.37,10.2 5.66,17.88s-2.38,8.59 -5.44,8.71s-5.37,-0.61 -5.66,-8.29z"/>
  <path stroke="null" id="svg_249" opacity="0.2" fill="#fff" d="m170.22,315.03s-3.58,-1.44 -1.93,-4.16l1.93,4.16z"/>
  <path stroke="null" id="svg_250" opacity="0.3" fill="#6c63ff" d="m209.91,259.9c5.68,-5.17 17.49,-7.63 17.49,-7.63s-4.33,10.68 -10,15.85s-8.11,3.71 -10.17,1.44s-3.01,-4.49 2.68,-9.66z"/>
  <path stroke="null" id="svg_251" opacity="0.2" fill="#fff" d="m209.4,266.88s-1.2,-3.66 1.94,-4.15l-1.94,4.15z"/>
  <path stroke="null" id="svg_252" opacity="0.5" fill="#6c63ff" d="m512.53,265.54c6,-4.85 17.88,-6.66 17.88,-6.66s-4.91,10.42 -10.82,15.28s-8.3,3.26 -10.24,0.88s-2.76,-4.65 3.18,-9.5z"/>
  <path stroke="null" id="svg_253" opacity="0.2" fill="#fff" d="m511.64,272.48s-1,-3.72 2.17,-4l-2.17,4z"/>
  <path stroke="null" id="svg_254" fill="#6c63ff" d="m442.75,312.81c6,-4.85 17.89,-6.66 17.89,-6.66s-4.92,10.42 -10.88,15.27s-8.3,3.27 -10.23,0.89s-2.74,-4.61 3.22,-9.5z"/>
  <path stroke="null" id="svg_255" opacity="0.2" fill="#fff" d="m441.86,319.75s-1,-3.72 2.17,-4l-2.17,4z"/>
  <path stroke="null" id="svg_256" opacity="0.5" fill="#6c63ff" d="m383.3,305.01c4,-6.6 14.54,-12.37 14.54,-12.37s-1.06,11.47 -5,18.07s-6.69,5.9 -9.32,4.32s-4.16,-3.43 -0.22,-10.02z"/>
  <path stroke="null" id="svg_257" opacity="0.2" fill="#fff" d="m384.84,311.83s-2.21,-3.15 0.66,-4.53l-0.66,4.53z"/>
  <path stroke="null" id="svg_258" fill="url(#e927a054-4c7d-4a3b-bb46-bc5c1d4b184d)" d="m273.9,429.44c-2.49,-0.81 -17.12,-12.16 -18.22,-17.29s7.73,-52.93 7.73,-52.93s-0.82,0 -2.11,-0.16l0,-0.77l1.81,-62.81s7.45,-42.13 -6.63,-39.7s-5.24,39.7 -5.24,39.7s-1.61,18.91 -2.74,24.58c-1.09,5.46 -6,27.74 -2.64,34.66a5,5 0 0 0 0.41,0.72l0,0s0.55,23.76 -5.52,27c-5.8,3.1 -8.21,18.63 -8.42,20l-0.3,-0.13l0,0a16.82,16.82 0 0 1 -4.5,-4c-0.12,-0.16 -0.22,-0.33 -0.33,-0.5a22.84,22.84 0 0 0 -0.64,-31.47c-0.19,-0.19 -0.38,-0.38 -0.58,-0.56a4,4 0 0 0 1,-1.69c1.08,-3.23 -2.63,-5.82 -4.54,-7.85c-4.47,-4.72 -8.47,-10.53 -14.67,-13.19a25.17,25.17 0 0 1 4.92,3.65a20.72,20.72 0 0 0 -6.32,-3.74c-6.49,-2.32 -13.95,-0.4 -19.62,3.46s-9.84,9.45 -13.66,15.08l-1.86,2.75a45.49,45.49 0 0 0 -5.27,-5c-3.59,-2.7 -10.77,-11.62 -10.77,-11.62s-22.36,-22.68 -24,-28.89s-24,-43.49 -29,-37s17.11,34.84 17.11,34.84s4.15,10.27 7.46,13.78s27.88,38.62 27.88,38.62l2.08,4.21l0.39,0.79a1.3,1.3 0 0 1 -0.26,-0.14l0,5.13l2.29,0.21a22.36,22.36 0 0 0 -2.79,3a19.27,19.27 0 0 0 -2.73,5.95c-3.62,12 -2.14,25 2.52,36.64a29.24,29.24 0 0 1 2.36,7.32c0.41,3.57 -0.78,7.09 -1.48,10.61c-1,5 -1,10.35 1.54,14.76c3.32,5.86 10.79,8.91 17.54,7.82a20,20 0 0 0 8.53,-3.62a22.71,22.71 0 0 0 7.42,-8.63c1.27,-2.58 2,-5.36 3.31,-7.95c0.24,-0.49 0.51,-1 0.78,-1.45c2.86,3.14 5.45,6.07 5.45,6.07s6.07,29.17 0.83,37.27a49.94,49.94 0 0 1 -10,10.8a19.89,19.89 0 0 0 -2.67,2.68c-0.52,0.37 -0.83,0.57 -0.83,0.57s-0.13,0.39 -0.34,1a18.58,18.58 0 0 0 -2.63,6a3.94,3.94 0 0 0 -0.19,1.69c0.37,0.75 -2.7,3.84 -1.8,5.14c-7.67,8.79 -9.12,22.14 -9.12,22.14l-13.99,20.71c-7.18,18.49 -17.94,20.39 -17.94,20.39s-25.26,-16.58 -25.95,-17.39s-10.37,-4.87 -10.37,-4.87a10.87,10.87 0 0 0 -5,-4.45c-3.32,-1.35 -3.59,-6.35 -3.59,-6.35c-0.41,-11.75 -7.45,-12.69 -7.45,-12.69c-5.68,-0.47 -10,0.51 -13.36,2.33l-1,0.08c-4.89,0.38 -10.79,0.82 -17.25,1.23c-18,1.17 -22.22,12.56 -22.22,12.56s-2.21,2.43 0.68,5.06s21.42,0.05 22.2,-0.06a11.56,11.56 0 0 1 -4.21,-0.29c2.92,-0.1 6.93,-0.2 10.34,-0.21l0.86,0a43.21,43.21 0 0 0 -0.31,5.35c0,3.38 9.53,5.54 9.53,5.54l29,25.25s18.22,8 29.82,19.44s21.81,1.62 21.81,1.62c12.27,-3 47.58,-44.79 47.61,-44.83l0,0c0,1.28 0.74,41.9 2.17,50.06l0,0a5.46,5.46 0 0 0 0.37,1.23c1.66,3.51 -0.56,13.1 -1.52,17.15a46.25,46.25 0 0 0 -0.69,10.26s-13.3,49.59 -12.2,53.92s-7.17,24.58 -7.17,24.58l0,16.87s0.52,0 1.44,-0.06a6.85,6.85 0 0 0 -0.52,0.83a1.11,1.11 0 0 0 -0.09,0.18s8.83,1.89 14.76,1.35s16.15,4.49 16.15,4.49s3.45,1.59 14.08,2.27s10.63,-4.6 10.63,-4.6c-1.22,-7.18 -18,-9.58 -18.53,-9.64c-1.35,-0.84 -2.63,-1.75 -3.66,-2.53l-0.23,-0.17a2.39,2.39 0 0 0 0.19,-0.48c1.8,-7.16 -8.14,-10.27 -8.14,-10.27l0,-1.75c6.49,-3.25 7.73,-25.53 7.73,-25.53s9.67,-27.54 11,-32.13s0,-11.49 0,-11.49l1,-5.93s2.07,-4.06 2.07,-4.87a11.89,11.89 0 0 1 2.35,-5.67c1.52,-1.76 -1.66,-5.94 -1.66,-5.94l2.76,-7l0,-7.7l6.49,-28s6.76,-32.52 4.43,-43.14s2.76,-16.08 2.76,-16.08c-0.49,0.25 -1,0.46 -1.42,0.64a39.93,39.93 0 0 0 1.67,-4.5l14.51,1.77l0,0.2l5.24,0s-1.66,-20 -1.66,-28.08s5.53,-37 5.53,-37s2.49,-28.4 0.01,-29.21zm-64.46,-23.74c0,0.11 0,0.22 0,0.33c0,0.79 -0.08,1.61 -0.13,2.44l-0.29,0.44l-0.53,-0.44l-0.67,1l0,0a3.91,3.91 0 0 1 1.13,-3.52a3.6,3.6 0 0 1 0.49,-0.25zm48.29,93.57l0.32,0l-0.52,1.32c0.06,-0.4 0.13,-0.84 0.2,-1.28l0,-0.04zm-53,239l-2,-0.49l1.1,-0.18l1,0.65l0.13,0.08l-0.23,-0.06zm20.22,-2.84c-0.66,-0.34 -1.32,-0.72 -2,-1.12c0.23,0.12 1.08,0.55 1.98,1.13l0.02,-0.01z"/>
  <polygon stroke="null" id="svg_259" fill="#f86d70" points="262.56 479.09 249.9 512.07 252.97 512.07 241.07 521.56 262.56 524.24 262.56 479.09"/>
  <polygon stroke="null" id="svg_260" opacity="0.1" points="262.56 479.09 249.9 512.07 246.71 511.21 241.07 521.56 262.56 524.24 262.56 479.09"/>
  <polygon stroke="null" id="svg_261" fill="#f86d70" points="242.71 500.19 262.56 500.19 269.84 440.25 242.71 440.25 242.71 500.19"/>
  <polygon stroke="null" id="svg_262" opacity="0.1" points="242.71 500.19 262.56 500.19 269.84 440.25 242.71 440.25 242.71 500.19"/>
  <path stroke="null" id="svg_263" fill="#714246" d="m203.95,454.45l4.27,-0.73l9.85,-1.67s29.57,-6.66 35.7,-7.19a37.92,37.92 0 0 0 10.7,-3.05c1.6,-0.69 2.61,-1.22 2.61,-1.22l-10.65,-19.45l-16.52,-12.25s-10.45,-2.22 -14.88,-8.3a9.85,9.85 0 0 1 -1.37,-9.28c2.7,-8.37 -16.1,8 -16.1,8s0.18,3.92 0,8.92c0,1 -0.09,2 -0.16,3.05c0,0.69 -0.11,1.38 -0.17,2.08c-0.46,5 -1.41,10.07 -3.26,13.12c-4.55,7.45 -0.02,27.97 -0.02,27.97z"/>
  <path stroke="null" id="svg_264" opacity="0.1" d="m207.59,408.62l0.42,0c0.75,0 1.36,-1.59 2.09,-1.67c5.88,-0.56 11.25,-1.8 15,-6a9.85,9.85 0 0 1 -1.36,-9.28c2.69,-8.37 -16.11,8 -16.11,8s0.11,3.95 -0.04,8.95z"/>
  <path stroke="null" id="svg_265" fill="#714246" d="m184.65,384.91a22.91,22.91 0 0 0 22.94,22.91a20.56,20.56 0 0 0 2.23,-0.11a22.9,22.9 0 1 0 -25.14,-22.8l-0.03,0z"/>
  <path stroke="null" id="svg_266" opacity="0.1" d="m184.65,384.91a22.91,22.91 0 0 0 22.94,22.91a20.56,20.56 0 0 0 2.23,-0.11a2.77,2.77 0 0 0 1.06,-0.75a3.35,3.35 0 0 0 0.41,-2.79c-0.9,-4.48 -5,-7.69 -6.42,-12c-1.28,-3.85 -0.33,-8.16 1.65,-11.69s4.89,-6.45 7.76,-9.32a4.85,4.85 0 0 1 1.78,-1.28c2.45,-0.77 6.13,1.38 8.06,-0.81a22.91,22.91 0 0 0 -39.44,15.86l-0.03,-0.02z"/>
  <path stroke="null" id="svg_267" fill="#453034" d="m215.23,369.46a4.74,4.74 0 0 0 -1.78,1.28c-2.87,2.86 -5.78,5.78 -7.76,9.31s-2.93,7.85 -1.65,11.7c1.46,4.33 5.52,7.54 6.42,12a3.35,3.35 0 0 1 -0.41,2.79c-0.78,0.95 -2.22,1 -3.21,1.73a4,4 0 0 0 -1.15,4.27a18.54,18.54 0 0 0 2.1,4.2c2.14,3.78 3,8.71 0.73,12.39a19.78,19.78 0 0 1 -3.83,4a59.54,59.54 0 0 0 -6.67,7a34.25,34.25 0 0 0 -4.45,6.81c-1.22,2.55 -2,5.29 -3.2,7.84c-2.85,6 -8.47,10.71 -15,11.79s-13.72,-1.94 -16.93,-7.72c-2.42,-4.35 -2.45,-9.67 -1.49,-14.55c0.68,-3.48 1.83,-7 1.44,-10.47a29.14,29.14 0 0 0 -2.28,-7.22c-4.5,-11.45 -5.93,-24.35 -2.44,-36.15a19.26,19.26 0 0 1 2.64,-5.86a35.12,35.12 0 0 1 4.18,-4.36c4.77,-4.66 8.28,-10.42 12,-16s7.72,-11.05 13.19,-14.86s12.65,-5.68 18.91,-3.4c6.55,2.39 10.59,8.5 15.13,13.41c1.85,2 5.43,4.55 4.39,7.74c-1.47,4.57 -6.01,1.43 -8.88,2.33z"/>
  <path stroke="null" id="svg_268" opacity="0.1" d="m174.18,465.46c6.52,-1.08 12.14,-5.83 15,-11.79c1.22,-2.54 2,-5.29 3.2,-7.84a34.54,34.54 0 0 1 4.45,-6.81a59.45,59.45 0 0 1 6.67,-7a19.83,19.83 0 0 0 3.83,-4c2.31,-3.68 1.42,-8.6 -0.72,-12.39a17.91,17.91 0 0 1 -2.11,-4.19a4,4 0 0 1 1.15,-4.28c1,-0.72 2.44,-0.78 3.21,-1.73a3.36,3.36 0 0 0 0.42,-2.78c-0.91,-4.49 -5,-7.69 -6.42,-12c-1.29,-3.84 -0.33,-8.15 1.64,-11.69s4.89,-6.45 7.76,-9.31a4.74,4.74 0 0 1 1.78,-1.28c2.87,-0.91 7.41,2.18 8.88,-2.34c1,-3.19 -2.54,-5.74 -4.39,-7.74c-3.91,-4.23 -7.46,-9.34 -12.55,-12.21c6,2.62 9.85,8.35 14.15,13c1.85,2 5.43,4.55 4.39,7.74c-1.47,4.52 -6,1.43 -8.88,2.34a4.66,4.66 0 0 0 -1.78,1.28c-2.87,2.86 -5.78,5.77 -7.76,9.31s-2.93,7.85 -1.65,11.69c1.46,4.33 5.52,7.54 6.42,12a3.34,3.34 0 0 1 -0.41,2.79c-0.78,0.95 -2.22,1 -3.21,1.73a4,4 0 0 0 -1.15,4.28a18.27,18.27 0 0 0 2.1,4.19c2.14,3.78 3,8.71 0.73,12.39a19.83,19.83 0 0 1 -3.83,4a58.65,58.65 0 0 0 -6.67,7a34.74,34.74 0 0 0 -4.46,6.81c-1.21,2.55 -2,5.3 -3.19,7.84c-2.85,6 -8.47,10.71 -15,11.79a17.24,17.24 0 0 1 -11.19,-2a17.24,17.24 0 0 0 9.59,1.2z"/>
  <path stroke="null" id="svg_269" fill="#714246" d="m198.49,732.83l4,2.64l0.61,0.41l0.12,0.08l4.73,3.13l11.05,1.86l9.73,-0.67s2.79,-5.85 -1.6,-5.72a9.28,9.28 0 0 1 -4,-1.15l-0.6,-0.31l0,0c-0.63,-0.34 -1.27,-0.72 -1.9,-1.11l0,0c-1.3,-0.82 -2.54,-1.72 -3.53,-2.49c-1.46,-1.12 -2.43,-2 -2.43,-2l-16.18,5.33z"/>
  <path stroke="null" id="svg_270" opacity="0.1" d="m202.49,735.47l0.61,0.41l0.12,0.08l4.73,3.13l11.05,1.86l9.73,-0.67s2.79,-5.85 -1.6,-5.72a9.28,9.28 0 0 1 -4,-1.15a3.54,3.54 0 0 1 1.49,1.82c0.17,1.49 -7.2,4.2 -7.2,4.2l-10.41,-2.73s-1.76,-0.51 -4.19,-1.13l-0.23,-0.06l-0.1,-0.04z"/>
  <path stroke="null" id="svg_271" fill="#b07473" d="m184.77,738.02s8.53,1.86 14.25,1.33s15.57,4.43 15.57,4.43s3.33,1.57 13.58,2.23s10.26,-4.53 10.26,-4.53c-1.18,-7.08 -17.37,-9.44 -17.88,-9.51l0,0l0,0l0,0c0.21,0.11 1,0.54 1.9,1.11l0,0c1.15,0.75 2.39,1.73 2.49,2.52c0.17,1.5 -7.2,4.21 -7.2,4.21l-10.39,-2.74s-1.76,-0.51 -4.19,-1.13l-0.23,-0.06a88.88,88.88 0 0 0 -10.89,-2.27c-4.48,-0.48 -6.77,3.33 -7.24,4.21l-0.03,0.2z"/>
  <path stroke="null" id="svg_272" fill="#714246" d="m50.51,550.08l4.53,3.46s1.31,-0.06 3.27,-0.12l0.63,0c2.82,-0.1 6.69,-0.21 10,-0.21a32.85,32.85 0 0 1 6.37,0.35c2.26,0.8 6.25,-12.91 6.25,-12.91l-4.54,-1.07l-1.5,-0.35l-1,-0.25l-3.7,-0.87l-11.23,1.25l-7.86,5.06l-1.22,5.66z"/>
  <path stroke="null" id="svg_273" opacity="0.1" d="m50.51,550.08l4.53,3.46s1.31,-0.06 3.27,-0.12a4,4 0 0 1 -2.07,-1.87c-2.93,-8.13 11.58,-11.59 11.58,-11.59l6.77,-0.26l1.31,-0.05l1.1,0l-1.5,-0.35l-1,-0.25l-3.7,-0.87l-11.21,1.18l-7.86,5.06l-1.22,5.66z"/>
  <path stroke="null" id="svg_274" fill="#b07473" d="m41.59,553.7c2.74,2.54 20.67,0 21.43,-0.06a11.5,11.5 0 0 1 -4.07,-0.28a4.48,4.48 0 0 1 -3.1,-2.25c-2.93,-8.13 11.59,-11.59 11.59,-11.59l6.76,-0.3l1.31,0l16.43,-0.72l0.8,-4.53s-5.34,0.52 -13.72,1.18c-4.72,0.38 -10.41,0.81 -16.65,1.22c-17.32,1.15 -21.44,12.39 -21.44,12.39s-2.14,2.39 0.66,4.94z"/>
  <path stroke="null" id="svg_275" fill="#714246" d="m242.72,357.57a6,6 0 0 0 0.39,0.71l4,5.86l10.39,1.07l0.11,-4.12l1.75,-61.95s7.19,-41.56 -6.39,-39.16s-5.06,39.16 -5.06,39.16s-1.55,18.65 -2.64,24.24c-1.05,5.39 -5.79,27.32 -2.55,34.19z"/>
  <path stroke="null" id="svg_276" fill="#714246" d="m219.4,511.46l3,5.06l6.62,11.32s12,4.39 15.06,1.06c1.69,-1.83 3.5,-8.21 4.79,-13.56c1,-4.34 1.74,-8 1.74,-8l-31.21,4.12z"/>
  <path stroke="null" id="svg_277" opacity="0.1" d="m219.4,511.46l3,5.06a4.38,4.38 0 0 0 0.51,-0.54c3.34,-4.27 18.06,-0.9 26,-0.64c1,-4.34 1.74,-8 1.74,-8l-31.25,4.12z"/>
  <path stroke="null" id="svg_278" opacity="0.1" d="m68.92,553.19a32.85,32.85 0 0 1 6.37,0.35c2.26,0.8 6.25,-12.91 6.25,-12.91l-6,-1.42l16.43,-0.72l0.8,-4.53s-5.34,0.52 -13.72,1.18a17,17 0 0 0 -4.56,3.82l-0.26,0.3c-3.52,4.3 -4.82,9.84 -5.31,13.93z"/>
  <path stroke="null" id="svg_279" opacity="0.1" d="m198.49,732.83l4.61,3c6.88,-1.24 13.16,-3.2 13.9,-6.25a0.83,0.83 0 0 0 0,-0.15c-1.46,-1.12 -2.43,-2 -2.43,-2l-16.08,5.4z"/>
  <path stroke="null" id="svg_280" opacity="0.1" d="m184.86,737.84a157.56,157.56 0 0 0 18.13,-1.94a88.88,88.88 0 0 0 -10.89,-2.27c-4.51,-0.48 -6.77,3.33 -7.24,4.21z"/>
  <path stroke="null" id="svg_281" fill="#444053" d="m69.42,558.47c0,3.33 9.19,5.46 9.19,5.46l28,24.91s17.58,7.86 28.77,19.18s21,1.6 21,1.6c11.85,-2.93 45.95,-44.22 45.95,-44.22s0.8,47.15 2.4,50.61s-0.53,12.92 -1.46,16.92a46.47,46.47 0 0 0 -0.67,10.12s-12.79,48.88 -11.72,53.15s-6.93,24.24 -6.93,24.24l0,16.65s31.3,-1.2 33,-8.26s-7.8,-10.13 -7.8,-10.13l0,-1.73c6.26,-3.2 7.45,-25.18 7.45,-25.18s9.33,-27.17 10.66,-31.7s0,-11.32 0,-11.32l0.93,-5.86s2,-4 2,-4.8a11.86,11.86 0 0 1 2.27,-5.59c1.46,-1.73 -1.6,-5.86 -1.6,-5.86l2.66,-6.93l0,-7.59l6.26,-27.57s6.53,-32.1 4.26,-42.62s2.67,-15.86 2.67,-15.86c-10.69,5.61 -16.08,-6.85 -17.85,-12.22c-0.45,-1.38 -0.67,-2.29 -0.67,-2.29s-14.68,-5.42 -28.35,-4.13a33.06,33.06 0 0 0 -8.14,1.73c-15.19,5.46 -17.58,28.1 -17.58,28.1l-13.46,20.52c-6.92,18.24 -17.31,20.11 -17.31,20.11s-24.38,-16.38 -25,-17.18s-10,-4.8 -10,-4.8a10.57,10.57 0 0 0 -4.8,-4.39c-3.2,-1.33 -3.46,-6.27 -3.46,-6.27c-0.4,-11.58 -7.19,-12.51 -7.19,-12.51c-23.61,-1.99 -23.48,22.38 -23.48,25.71z"/>
  <rect stroke="null" id="svg_282" fill="#f86d70" transform="rotate(-180 461.8299865722656,992.3599853515625) " height="44.62" width="14.39" y="1491.37999" x="704.25999"/>
  <rect stroke="null" id="svg_283" opacity="0.1" transform="rotate(-180 461.8299865722656,992.3599853515625) " height="44.62" width="14.39" y="1491.37999" x="704.25999"/>
  <path stroke="null" id="svg_284" opacity="0.1" d="m242.71,357.48a0.62,0.62 0 0 0 0,0.09a6,6 0 0 0 0.39,0.71l4,5.86l10.39,1.07l0.11,-4.12c-3.23,-0.28 -10.62,-1.17 -14.89,-3.61z"/>
  <path stroke="null" id="svg_285" fill="#f86d70" d="m243.11,358.28s0.53,23.44 -5.33,26.63s-8.13,19.87 -8.13,19.87s17.72,11.69 21.72,16.82s13.05,17.39 11.19,20.33s4.53,16.25 4.53,16.25s-11.72,24 -9.06,33s2.93,33 2.93,33l5.06,0s-1.6,-19.71 -1.6,-27.7s5.33,-36.5 5.33,-36.5s2.4,-28 0,-28.77s-16.52,-12 -17.58,-17.05s7.42,-52.15 7.42,-52.15s-10.88,-0.54 -16.48,-3.73z"/>
  <path stroke="null" id="svg_286" opacity="0.1" d="m204.75,444.59a22.78,22.78 0 0 0 3.47,9.13l9.85,-1.67s29.57,-6.66 35.7,-7.19a37.92,37.92 0 0 0 10.7,-3.05a47.13,47.13 0 0 0 -13.23,-21.69l-3.75,-3.48a63.63,63.63 0 0 0 -18.9,-12.1c0.44,0.38 31.46,26.86 24.66,32.06s-25.05,-7.46 -25.05,-7.46l-20.8,-17.87l-0.76,-0.65l-1.2,1.87s0.68,0.27 1.79,0.86a30.62,30.62 0 0 1 14.59,18.19c4.26,14.37 -17.07,13.05 -17.07,13.05z"/>
  <path stroke="null" id="svg_287" fill="#444053" d="m198.36,511.19s19.71,10.92 24.51,4.79c1.05,-1.35 3.24,-1.94 6,-2.1c-0.45,-1.38 -0.67,-2.29 -0.67,-2.29s-14.68,-5.42 -28.35,-4.13c-0.92,2.24 -1.49,3.73 -1.49,3.73z"/>
  <path stroke="null" id="svg_288" fill="#e8e8f0" d="m207.42,410.62l21.55,18.52s18.23,12.69 25.06,7.46s-24.66,-32.06 -24.66,-32.06l0,0a63.59,63.59 0 0 1 18.92,12.16l3.75,3.48c9.87,9.14 12.1,9.14 12.43,22.58c0.08,3.31 -1.05,8.07 -1.91,8.93c-3.2,3.16 -5.44,25.9 -5,28.57s-6,25.65 -3.84,32s-26.11,-3.19 -30.9,2.93s-24.51,-4.79 -24.51,-4.79s10.92,-28 13.58,-29.84s5.86,-16.25 0,-22.91s-6.3,-13.06 -6.3,-13.06s21.33,1.32 17,-13.05a30.18,30.18 0 0 0 -16.38,-19l1.21,-1.92z"/>
  <path stroke="null" id="svg_289" opacity="0.1" d="m236.19,457.78s-8.27,15.58 -19,19.63c-0.33,0.13 -0.67,0.24 -1,0.35c-11.17,3.39 20.79,-15.19 20,-19.98z"/>
  <path stroke="null" id="svg_290" fill="#714246" d="m120.59,319.92s4,10.12 7.19,13.58s26.91,38.1 26.91,38.1l2,4.15l1.73,3.57l15.17,-1.62l1.07,-6.12l-0.59,-0.71c-1.52,-1.84 -5.68,-6.74 -8.47,-8.89c-3.46,-2.66 -10.39,-11.45 -10.39,-11.45s-21.57,-22.37 -23.17,-28.5s-23.18,-42.89 -28,-36.5s16.55,34.39 16.55,34.39z"/>
  <path stroke="null" id="svg_291" opacity="0.1" d="m156.67,375.75l1.73,3.57l15.19,-1.62l1.07,-6.12l-0.59,-0.71c-1.64,0.83 -13.78,6.65 -17.4,4.88z"/>
  <path stroke="null" id="svg_292" opacity="0.1" d="m212.74,415.82s-3.73,-5.86 -5.86,-4.26s-3,-4.8 -4.14,-3.74s-4.78,4 -6.25,-0.12c-1.16,-3.3 -13.78,-24.18 -18.9,-32.6l-2.14,-3.5s-14.39,7.19 -17.85,4.79l0,5.06l2.93,0.27l15.72,29.3s4.93,7.85 4.6,10.58s6.32,14.73 7.39,15.53s12.52,14.12 12.52,14.12s5.86,28.77 0.79,36.76s-13.85,13.85 -13.85,13.85s-2.64,7.73 -2.25,8.53s-3.08,4.26 -1.48,5.33s3.73,8.52 3.73,8.52s7.46,-12 11.46,-13.85s9.2,-26.37 9.2,-26.37s1.46,-14.46 1.59,-23.78s-0.36,-44.42 2.79,-44.42z"/>
  <path stroke="null" id="svg_293" fill="#f86d70" d="m211.94,415.82s-3.73,-5.86 -5.86,-4.26s-3,-4.8 -4.14,-3.74s-4.78,4 -6.25,-0.12c-1.16,-3.3 -13.78,-24.18 -18.9,-32.6l-2.14,-3.5s-14.39,7.19 -17.85,4.79l0,5.06l2.93,0.27l15.72,29.3s4.93,7.85 4.6,10.58s6.32,14.73 7.39,15.53s12.52,14.12 12.52,14.12s5.86,28.77 0.8,36.76a48.78,48.78 0 0 1 -9.68,10.69a18.68,18.68 0 0 0 -6.24,10a4,4 0 0 0 -0.19,1.67c0.39,0.8 -3.07,4.26 -1.48,5.33s3.73,8.52 3.73,8.52s7.46,-12 11.46,-13.85s9.2,-26.37 9.2,-26.37s1.47,-14.46 1.59,-23.78s-0.4,-44.4 2.79,-44.4z"/>
  <path stroke="null" id="svg_294" opacity="0.1" d="m175.45,537.03s11.19,2.13 15.72,5.33s-17.05,-5.07 -17.05,-5.07l1.33,-0.26z"/>
  <path stroke="null" id="svg_295" opacity="0.1" d="m202.35,565.4s11.73,9.72 9.59,18.51l-7.49,30.91l-2.1,-49.42z"/>
  <path stroke="null" id="svg_296" opacity="0.1" d="m100.26,546.7s-16.45,1.8 -15.39,3.93s15.39,-2 15.39,-2l0,-1.93z"/>
  <path stroke="null" id="svg_297" opacity="0.1" d="m226.59,627.6s1.06,1.33 -5.07,0s-1.59,-5.43 -1.59,-5.43l6.66,5.43z"/>
  <path stroke="null" id="svg_298" opacity="0.1" d="m224.46,645.98s-8.39,1.33 -12.85,0s12.85,0 12.85,0z"/>
  <path stroke="null" id="svg_299" opacity="0.1" d="m207.28,717.91s-1.46,-1.6 -8.79,1.33s-10.25,3.06 -12.39,2.13s21.18,-3.46 21.18,-3.46z"/>
  <path stroke="null" id="svg_300" opacity="0.1" d="m215.41,544.42l-10.39,14.45s5.57,-12.65 10.39,-14.45z"/>
  <path stroke="null" id="svg_301" opacity="0.1" d="m195.16,411.56s-0.44,4.79 -7.15,6.66s-8,3.38 -8,3.38"/>
  <path stroke="null" id="svg_302" opacity="0.1" d="m177.81,376.78s-8.84,6.28 -18.08,4.94"/>
  <path stroke="null" id="svg_303" opacity="0.1" d="m184.59,511.05s2.58,1.62 8.78,-5.47"/>
  <path stroke="null" id="svg_304" opacity="0.1" d="m248.91,435.91c0.25,-1.29 -0.65,-2.5 -1.5,-3.51l-1.74,-2.07a7.37,7.37 0 0 0 -1.13,-1.17c-1,-0.8 -2.39,-1 -3.47,-1.77"/>
  <path stroke="null" id="svg_305" fill="url(#e3491b7b-890d-4a85-a806-3cf3d862c8a7)" d="m928.52,519.21c4.6,10.88 4.21,32.45 4.21,32.45s2.64,4 3.72,2.9s-0.38,4.13 -0.39,4.16l0,0l0.08,0.29l-0.08,0.29l0.17,0c1.16,4 8,26.56 14.61,20.3l0,0c-1.61,12.93 -3,27.11 -3,27.11s-6.56,26.41 -3.74,29s2.49,11.14 2.49,11.14c-4.2,8 -1.76,22.84 -1.76,22.84l-0.39,43c6,9.77 5.48,18.48 5.48,18.48l0.78,0l-5.48,8.22s-1.24,4.13 -9.61,8.55c-3.35,1.78 -4.87,3.87 -5.27,5.78a5.11,5.11 0 0 0 0.59,3.66a4.26,4.26 0 0 0 2.44,2l0.18,0c3.23,0.65 15.71,0.65 15.71,0.65s12.62,-9.64 16.44,-9.86a8.05,8.05 0 0 0 5.87,-3.49s-0.08,-2.24 -0.32,-4.86c-0.3,-3.08 -0.82,-6.67 -1.73,-7.62s-1.3,-1.77 -2,-2.4l2.07,0.08c4.79,-3.19 1.36,-12.09 1.36,-12.09l0,-22.09s3,-21.66 1.57,-27.67s6.17,-17.12 6.17,-17.12l1.07,-12.09c3.72,-4.84 5.48,-31.54 5.48,-31.54l4,-13.42c-0.11,0.58 -2.19,11.83 0,13.9s3,11.22 3,11.22s-2.16,25.35 0,30.48s-0.59,8 -0.59,8l-0.39,26.31s1.86,7.07 -0.2,17s0,25.35 0,25.35l2.21,0c-0.32,1.21 -1.25,4.55 -1.77,4.79s-0.74,4.06 -0.87,7.38c-0.07,1.74 -0.08,3.33 0,4.15c0.15,2.4 2.86,2.54 2.86,2.54c7.92,1.23 9.61,4.29 9.61,4.29a25.66,25.66 0 0 0 19.08,6.38c9.75,-0.93 8.8,-2.65 8.3,-5.83a12.33,12.33 0 0 1 -0.15,-1.79c0,-4.35 -3.38,-5.59 -8.66,-8.85s-5.14,-6 -7.34,-8.42a10.18,10.18 0 0 1 -2.1,-4.72l-0.1,-10.66l3.42,-9.1s2.35,-37.53 4.21,-45.66a20.18,20.18 0 0 0 -2,-14.22s3.91,-6.19 3.72,-10.54s3,-12.68 3,-12.68l4.55,-30.57a59.4,59.4 0 0 1 0.75,-10.78c4.61,1.4 12.52,-11.72 14.66,-15.44c0.35,-0.61 0.54,-1 0.54,-1l0,0l0.59,-3.68s1.27,-0.68 4.21,-1.93s4.89,-16.64 4.89,-16.64s2.84,-7.74 7.73,-21.29s-1.47,-32.5 -1.47,-32.5l-5.09,-22.35c0.88,-14.9 -5.43,-23.53 -5.43,-23.53l-29,-23.3a2.56,2.56 0 0 0 -2.72,-0.28l-0.29,0.15c-0.17,-2.43 -0.18,-5 -0.11,-7.43c0,-0.23 0,-0.46 0,-0.69a1.09,1.09 0 0 0 0.76,0.31l0.19,0a5.6,5.6 0 0 0 4.17,-1.6l-0.36,0.14a8.46,8.46 0 0 0 1.24,-1.3a34.33,34.33 0 0 0 2.89,-5.42a51.3,51.3 0 0 1 4.68,-7.11l3.73,-5.05a10.17,10.17 0 0 1 1.88,-2.1a23.29,23.29 0 0 0 2,-1.4a5.24,5.24 0 0 0 1,-5.06c-0.43,-1.76 -1.35,-3.35 -2,-5.06a6.4,6.4 0 0 1 0.06,-5.25a7.46,7.46 0 0 0 1.19,-2.1a3.5,3.5 0 0 0 -1.19,-2.88c-3.16,-3.44 -7.77,-5.1 -12,-7.19a47.94,47.94 0 0 0 -6.82,-3.17a22.85,22.85 0 0 0 -13,0.28c-5.55,1.59 -11,4.86 -13.44,10c-1.11,2.2 -1.06,4.4 0.43,6c-0.34,0.25 -0.68,0.49 -1,0.75a22.17,22.17 0 0 0 -1.81,33.34c0,0.35 -0.09,0.69 -0.15,1a12.36,12.36 0 0 1 -2.77,6l-0.49,-0.08a2.47,2.47 0 0 1 0.65,-0.62l-31.53,6.72s-8.8,1.93 -15.16,23.8c-0.2,0.67 -0.38,1.35 -0.53,2l0,0s-9,23 -10.43,32.88c0.11,0.16 -6.56,26.59 -1.96,37.46zm25.07,-26.37l-0.65,25.16l0,0l-0.7,26.7c-1,-4.24 -1.88,-7.84 -1.88,-7.84s-0.81,-28.11 -0.13,-41.28l0,0.06l3.36,-2.8zm85.22,0.29s-1.57,2.13 0.78,7.11s2,11.46 2,11.76s-3.23,12.48 -2.15,17.12c0.83,3.59 -1.5,10.37 -2.6,13.25a31.25,31.25 0 0 0 -2.39,-8.22c-3.33,-6 0,-47.6 0,-47.6c2.38,-1.54 4.34,6.58 4.34,6.58l0.02,0z"/>
  <path stroke="null" id="svg_306" fill="#f899a5" d="m1026.39,580.24c2.89,12.74 14.41,-6.53 17,-11.15l0.53,-0.95l-1.25,-5.86l-6.6,-2.69a18.28,18.28 0 0 0 -3,1.92c-3.54,2.82 -8.92,8.86 -6.68,18.73z"/>
  <path stroke="null" id="svg_307" fill="#f899a5" d="m936.98,559.4s0,0.09 0.08,0.28s0,0.19 0.09,0.31c1.13,4 7.85,26.37 14.33,20.15c7.11,-6.82 3.66,-22.48 3.66,-22.48l0,0l-14.94,-1.53l-3,3l0,0l-0.22,0.27z"/>
  <path stroke="null" id="svg_308" fill="#444053" d="m945.59,669.54l-0.38,42.73c5.86,9.71 5.38,18.35 5.38,18.35l19.3,0.77c4.71,-3.17 1.34,-12 1.34,-12l0,-22s3,-21.51 1.54,-27.47s6,-17 6,-17l1.06,-12c3.65,-4.8 5.38,-31.31 5.38,-31.31l3.93,-13.32c-0.11,0.57 -2.15,11.74 0,13.8s3,11.14 3,11.14s-2.11,25.16 0,30.25s-0.57,8 -0.57,8l-0.39,26.12s1.83,7 -0.19,16.9s0,25.16 0,25.16l20.74,0l-0.1,-10.66l3.36,-9s2.31,-37.25 4.13,-45.32a20.24,20.24 0 0 0 -1.91,-14.12s3.83,-6.14 3.64,-10.47s2.93,-12.57 2.93,-12.57l4.47,-30.35a59,59 0 0 1 2.21,-17.29c2.59,-8.64 6.43,-20 6.43,-20l-4.33,0.38l-21.89,2s-53.2,-3.58 -55.58,-0.6a9.72,9.72 0 0 0 -1,3.1c-2.39,10.73 -5.55,44.34 -5.55,44.34s-6.43,26.22 -3.67,28.81s2.42,11 2.42,11c-4.06,7.94 -1.7,22.63 -1.7,22.63z"/>
  <path stroke="null" id="svg_309" fill="#b07473" d="m990.59,743.84c0.15,2.38 2.81,2.53 2.81,2.53c7.78,1.22 9.43,4.25 9.43,4.25a25.08,25.08 0 0 0 18.73,6.34c9.57,-0.93 8.64,-2.63 8.15,-5.79a12.19,12.19 0 0 1 -0.15,-1.78c0,-4.32 -3.32,-5.55 -8.5,-8.79s-5,-6 -7.2,-8.35s-2.38,-7 -2.38,-7c-2.45,-4.26 -8.65,0.64 -8.65,0.64c-0.29,1.51 -9.5,1.3 -9.5,1.3s-1.23,4.9 -1.85,5.18c-0.42,0.19 -0.73,4 -0.86,7.33c-0.03,1.75 -0.03,3.32 -0.03,4.14z"/>
  <path stroke="null" id="svg_310" opacity="0.1" d="m990.59,743.84c0.15,2.38 2.81,2.53 2.81,2.53c7.78,1.22 9.43,4.25 9.43,4.25a25.08,25.08 0 0 0 18.73,6.34c9.57,-0.93 8.64,-2.63 8.15,-5.79c-4.27,1.06 -12.45,2.54 -17.22,-0.05c-6.63,-3.6 -11.39,-6.13 -11.39,-6.13l-10.51,-5.29c0,1.75 0,3.32 0,4.14z"/>
  <path stroke="null" id="svg_311" fill="#b07473" d="m931.98,756.7a4.14,4.14 0 0 0 2.39,2l0.19,0c3.16,0.65 15.41,0.65 15.41,0.65s12.39,-9.58 16.14,-9.79a7.9,7.9 0 0 0 5.76,-3.46s-0.08,-2.23 -0.32,-4.82c-0.29,-3.07 -0.8,-6.63 -1.7,-7.57c-1.66,-1.73 -2,-4.1 -5.76,-2.59c0,0 -5.32,-9.38 -11.59,-2.13l-6.49,9.84s-1.22,4.1 -9.44,8.49c-3.29,1.76 -4.77,3.84 -5.17,5.73a5.12,5.12 0 0 0 0.58,3.65z"/>
  <path stroke="null" id="svg_312" opacity="0.1" d="m931.98,756.7c0.73,0.62 1.54,1.29 2.39,2l0.19,0c3.16,0.65 15.41,0.65 15.41,0.65s12.39,-9.58 16.14,-9.79a7.9,7.9 0 0 0 5.76,-3.46s-0.08,-2.23 -0.32,-4.82c-3.81,1.14 -9.59,3.15 -11.14,5.33c-2.37,3.3 -9.58,7.91 -9.58,7.91s-13.45,-1.29 -19.43,-1.47a5.12,5.12 0 0 0 0.58,3.65z"/>
  <path stroke="null" id="svg_313" fill="#f899a5" d="m984.33,421.55l17.71,18.72s21.47,-1.58 17.72,-7.92c-1.91,-3.23 -2.21,-10 -2,-15.86c0.16,-5.67 0.74,-10.5 0.74,-10.5s-30.1,-15 -27.8,-1a23.06,23.06 0 0 1 0.09,8c-1.35,7.02 -6.46,8.56 -6.46,8.56z"/>
  <path stroke="null" id="svg_314" opacity="0.1" d="m990.66,404.98a23.06,23.06 0 0 1 0.09,8a22.09,22.09 0 0 0 15.76,6.57c4.09,0 8.47,-3.35 11.76,-5.28c0.16,-5.67 0.19,-8.26 0.19,-8.26s-30.1,-15 -27.8,-1.03z"/>
  <path stroke="null" id="svg_315" fill="#f899a5" d="m984.33,396.19a22.19,22.19 0 0 0 22.18,22.19a22.19,22.19 0 0 0 22.18,-22.19a22.18,22.18 0 0 0 -44.36,0z"/>
  <path stroke="null" id="svg_316" opacity="0.1" d="m954.15,562.7c5.52,13.15 41,13.42 41,13.42l0,-14.35l2.16,-0.14c-0.93,4.1 1.3,14.12 1.3,14.12c28.08,4 34.93,-12 34.93,-12l-1,-5.48l-21.89,2s-53.2,-3.58 -55.58,-0.6a9.72,9.72 0 0 0 -0.92,3.03z"/>
  <path stroke="null" id="svg_317" fill="#e1e7ef" d="m995.2,574.38l0,-14.34l2.16,-0.14c-0.93,4.11 1.3,14.12 1.3,14.12c21.14,3 30.24,-5.34 33.45,-9.64a13,13 0 0 0 1.48,-2.39l-8.57,-48.29l-2,-71l-3.1,-12.46l-0.71,-6l0,-0.07l-0.07,0l-2.18,0.94l-13.08,5.65l-14.86,-11.22l-0.22,-0.16l-0.74,-0.56l-1.23,1l-3.05,2.45l-9.8,63.24s-17,48.7 -20.14,68.35c-0.13,0.78 -0.23,1.51 -0.31,2.2c-2.12,17.98 41.67,18.32 41.67,18.32z"/>
  <circle stroke="null" id="svg_318" fill="#67647e" r="1.26" cy="432.21" cx="1002.26"/>
  <circle stroke="null" id="svg_319" fill="#67647e" r="1.26" cy="443.73" cx="1001.68"/>
  <circle stroke="null" id="svg_320" fill="#67647e" r="1.26" cy="462.38" cx="1000.42"/>
  <circle stroke="null" id="svg_321" fill="#67647e" r="1.26" cy="482.48" cx="998.33"/>
  <circle stroke="null" id="svg_322" fill="#67647e" r="1.26" cy="501.35" cx="997.07"/>
  <circle stroke="null" id="svg_323" fill="#67647e" r="1.26" cy="521.44" cx="995.81"/>
  <circle stroke="null" id="svg_324" fill="#67647e" r="1.26" cy="541.32" cx="996.31"/>
  <path stroke="null" id="svg_325" opacity="0.1" d="m1018.35,520.75s1.41,18.48 4,23.86s3.75,20.45 3.75,20.45l6,-0.68a13,13 0 0 0 1.48,-2.39l-8.56,-48.29l-2,-71l-3.1,-12.46l-0.71,-6s0,0 -0.08,0a2.44,2.44 0 0 0 -2.14,0l-0.29,0.15c0.08,0.25 0.17,0.5 0.25,0.76c2.34,7.34 3.22,20.89 3.22,20.89s-3.37,24.78 -3.75,36.3s1.93,38.41 1.93,38.41z"/>
  <path stroke="null" id="svg_326" opacity="0.1" d="m1033.15,561.51a4.73,4.73 0 0 0 0.23,0.45c2.34,3.94 8.25,6.45 10,7.13l0.53,-0.95l-1.25,-5.86l-6.6,-2.69a18.28,18.28 0 0 0 -2.91,1.92z"/>
  <path stroke="null" id="svg_327" fill="#67647e" d="m1049.15,467.21l5.47,3.26l5,22.19s6.25,18.82 1.44,32.26s-7.58,21.13 -7.58,21.13s-1.92,15.27 -4.8,16.52s-4.13,1.92 -4.13,1.92l-0.58,3.65s-7.81,-2.66 -10.58,-7.33s2,-16.3 2,-16.3s4.13,-9.89 3.08,-14.5s2.11,-16.71 2.11,-17s0.29,-6.72 -2,-11.66s-0.77,-7.06 -0.77,-7.06l1.44,-14.12l9.9,-12.96z"/>
  <path stroke="null" id="svg_328" opacity="0.1" d="m953.69,558.53s14.5,5.48 19.11,0.68s4.13,-27.28 4.13,-27.28s4.42,-41.48 7.21,-48.3s1.34,-56 1.34,-56s1.88,-6.36 3.51,-8a2,2 0 0 1 0.34,-0.28l-0.56,0.12l-2,0.43l-3.05,2.45l-9.8,63.24s-17,48.7 -20.14,68.35l-0.09,4.59z"/>
  <path stroke="null" id="svg_329" opacity="0.1" d="m936.98,559.97l0.17,0c1.82,0.24 17.94,2.18 18,-1.17a8.69,8.69 0 0 0 -0.06,-1.16l-14.94,-1.53l-3,3l0,0c-0.05,0.19 -0.09,0.37 -0.13,0.5l-0.04,0.36z"/>
  <path stroke="null" id="svg_330" fill="#67647e" d="m952.44,444.99l-10.6,5.52s-8.79,22.84 -10.23,32.64c0,0 -6.53,26.24 -2,37s4.13,32.21 4.13,32.21s2.59,3.93 3.65,2.88s-0.39,4.13 -0.39,4.13s18.1,2.4 18.18,-1.16s-4.18,-20.51 -4.18,-20.51s-1.15,-40.42 0.48,-46.76s0.96,-45.95 0.96,-45.95z"/>
  <path stroke="null" id="svg_331" opacity="0.1" d="m984.04,488.05s6,14.59 7.87,15.55s-0.38,4.81 -0.38,4.81s-10.85,-15.18 -7.49,-20.36z"/>
  <path stroke="null" id="svg_332" opacity="0.1" d="m987.59,436.86c-0.07,-0.28 7.11,7 9,8.13s-7,-0.06 -9,-8.13z"/>
  <path stroke="null" id="svg_333" opacity="0.1" d="m1007.59,486.89s10.94,7.09 9.5,9.88s-9.5,-9.88 -9.5,-9.88z"/>
  <path stroke="null" id="svg_334" opacity="0.1" d="m987.69,590.22s-9.32,6 -23.82,7.49l23.82,-7.49z"/>
  <path stroke="null" id="svg_335" opacity="0.1" d="m1010.06,604.63s-8.64,10.85 -12.58,11.14s12.58,-11.14 12.58,-11.14z"/>
  <path stroke="null" id="svg_336" opacity="0.1" d="m997.96,647.17c0.39,0.19 4.9,9.79 9.51,10.08s-9.51,-10.08 -9.51,-10.08z"/>
  <path stroke="null" id="svg_337" opacity="0.1" d="m957.92,668.2s-8.56,-1.92 -10.47,4.22c0,0 0.58,-1.92 10.47,-4.22z"/>
  <path stroke="null" id="svg_338" opacity="0.1" d="m963.68,703.35s-10.37,-2.12 -12.58,0.76s12.58,-0.76 12.58,-0.76z"/>
  <path stroke="null" id="svg_339" opacity="0.1" d="m993.03,708.24c0,0.1 10.56,2.12 10.15,3.46s-11.27,1.15 -11.65,-1a2,2 0 0 1 1.5,-2.46z"/>
  <path stroke="null" id="svg_340" opacity="0.1" d="m967.14,717.37s-17.35,-2.12 -16.27,1.53s16.27,-1.53 16.27,-1.53z"/>
  <path stroke="null" id="svg_341" opacity="0.1" d="m1057.98,503.6c-0.1,0.29 -11.43,1.83 -13,5.48c0,0 11.14,-5.19 12.86,-5.19"/>
  <path stroke="null" id="svg_342" opacity="0.1" d="m1042.04,533.28s9.41,3 8.74,7.49s0.96,-2.07 -8.74,-7.49z"/>
  <path stroke="null" id="svg_343" opacity="0.1" d="m1046.43,556.13s-3.43,-4.7 -6.69,-3.84s6.69,3.84 6.69,3.84z"/>
  <path stroke="null" id="svg_344" opacity="0.1" d="m992.67,378.86a6,6 0 0 0 1.11,0.82c2.73,1.58 3.46,4 4.77,6.83c1.19,2.57 2.52,5.29 5,6.75c3.12,1.89 7.24,1.19 10.49,2.84a8.17,8.17 0 0 1 4.35,8a23.49,23.49 0 0 1 -0.93,3.67a26.31,26.31 0 0 0 -1,8a1,1 0 0 0 0,0.24a22.18,22.18 0 1 0 -23.77,-37.17l-0.02,0.02z"/>
  <path stroke="null" id="svg_345" fill="#585268" d="m993.25,372.18c2.44,-5.12 7.74,-8.36 13.19,-9.94a22.17,22.17 0 0 1 12.8,-0.28a46.46,46.46 0 0 1 6.7,3.15c4.11,2.08 8.64,3.72 11.73,7.13a3.5,3.5 0 0 1 1.17,2.87a7.39,7.39 0 0 1 -1.16,2.08a6.42,6.42 0 0 0 -0.06,5.21c0.59,1.69 1.49,3.27 1.92,5a5.26,5.26 0 0 1 -1,5a21.94,21.94 0 0 1 -1.93,1.39a10,10 0 0 0 -1.85,2.09l-3.66,5a50.11,50.11 0 0 0 -4.59,7a33.64,33.64 0 0 1 -2.84,5.38a6.11,6.11 0 0 1 -5.14,2.75a1,1 0 0 1 -0.81,-0.38a1.16,1.16 0 0 1 -0.11,-0.52a26.25,26.25 0 0 1 1,-8a22.54,22.54 0 0 0 0.93,-3.68a8.19,8.19 0 0 0 -4.34,-8c-3.26,-1.64 -7.38,-0.95 -10.5,-2.83c-2.43,-1.47 -3.76,-4.19 -5,-6.76c-1.31,-2.81 -2,-5.25 -4.77,-6.83s-3.03,-4.13 -1.68,-6.83z"/>
  <path stroke="null" id="svg_346" opacity="0.1" d="m1003.19,734.77s-3.38,4.32 -2.51,6.77s2.51,-6.77 2.51,-6.77z"/>
  <path stroke="null" id="svg_347" opacity="0.1" d="m957.28,745.57s-0.75,-5.79 -3.78,-5.85s-3.17,-0.31 -5.47,0.58s-4.47,2.27 -3.79,2.47s4,-3.31 7.34,-1.51a24.16,24.16 0 0 1 5.7,4.31z"/>
  <path stroke="null" id="svg_348" opacity="0.1" d="m1013.31,438.08l-9.47,-6.67s13.9,-8.21 15.56,-7s2.8,11.53 2.8,11.53l-8.89,2.14z"/>
  <path stroke="null" id="svg_349" fill="#e1e7ef" d="m1013.35,437.64l-9.51,-6.8s13.9,-8.21 15.56,-7.06s2.8,12.11 2.8,12.11l-8.85,1.75z"/>
  <path stroke="null" id="svg_350" opacity="0.03" d="m1013.35,437.64l-9.51,-6.8s13.9,-8.21 15.56,-7.06s2.8,12.11 2.8,12.11l-8.85,1.75z"/>
  <path stroke="null" id="svg_351" fill="#67647e" d="m1017.83,423.86l0.29,-0.15a2.47,2.47 0 0 1 2.67,0.28l28.5,23.12s6.19,8.58 5.33,23.36l-16.81,23.82s-1.92,-8.07 -4.22,-6.53c0,0 -3.27,41.29 0,47.25s4.7,28.23 4.7,28.23l-11,1.25s-1.15,-15.08 -3.74,-20.46s-4,-23.85 -4,-23.85s-2.33,-26.85 -2,-38.37s3.75,-36.3 3.75,-36.3s-0.94,-14.53 -3.47,-21.65z"/>
  <path stroke="null" id="svg_352" opacity="0.1" d="m989.44,433.86l11.84,-4.38s-15.08,-16.52 -17,-7.36l5.16,11.74z"/>
  <path stroke="null" id="svg_353" fill="#e1e7ef" d="m989.44,433.29l11.84,-4.39s-15.08,-16.52 -17,-7.35l5.16,11.74z"/>
  <path stroke="null" id="svg_354" opacity="0.03" d="m989.44,433.29l11.84,-4.39s-15.08,-16.52 -17,-7.35l5.16,11.74z"/>
  <path stroke="null" id="svg_355" opacity="0.1" d="m989.82,419.24a0.65,0.65 0 0 0 -0.49,0.1l0.49,-0.1z"/>
  <path stroke="null" id="svg_356" fill="#67647e" d="m988.67,418.09l-31.42,6.77s-8.65,1.92 -14.89,23.62s8.55,48.29 8.55,48.29l3.26,-2.77l-1.58,63.38s14.5,5.47 19.11,0.67s4.13,-27.27 4.13,-27.27s4.42,-41.48 7.2,-48.3s1.35,-56 1.35,-56s2.54,-8.78 4.29,-8.39z"/>
  <path stroke="null" id="svg_357" opacity="0.1" d="m959.93,458.47c0.45,0.41 1,19.59 -1,34.19a186.7,186.7 0 0 1 -5.44,26.31l2.85,-58.48s2.25,-3.27 3.59,-2.02z"/>
  <path stroke="null" id="svg_358" opacity="0.1" d="m963.78,441.95c-0.77,0.48 -4.13,8.45 -2.6,11.72s2.6,-11.72 2.6,-11.72z"/>
  <path stroke="null" id="svg_359" opacity="0.1" d="m993.44,372.18a17.23,17.23 0 0 1 6.9,-7.23a16.32,16.32 0 0 0 -5.17,6.08c-1.35,2.69 -1,5.4 1.68,6.92s3.46,4 4.77,6.83c1.19,2.57 2.52,5.29 4.94,6.76c3.13,1.88 7.25,1.19 10.5,2.83a8.19,8.19 0 0 1 4.35,8a22.54,22.54 0 0 1 -0.93,3.68a26.25,26.25 0 0 0 -1,8a1.22,1.22 0 0 0 0.1,0.51a1,1 0 0 0 0.81,0.39a4.7,4.7 0 0 0 2.37,-0.44a5.51,5.51 0 0 1 -4.09,1.59a1,1 0 0 1 -0.81,-0.38a1.16,1.16 0 0 1 -0.11,-0.52a26.25,26.25 0 0 1 1,-8a22.54,22.54 0 0 0 0.93,-3.68a8.19,8.19 0 0 0 -4.34,-8c-3.26,-1.64 -7.38,-0.95 -10.5,-2.83c-2.43,-1.47 -3.76,-4.19 -5,-6.76c-1.31,-2.81 -2,-5.25 -4.77,-6.83s-2.98,-4.22 -1.63,-6.92z"/>
  <ellipse transform="translate(6.1538472175598145,61.538475036621094) " stroke="null" id="svg_360" opacity="0.1" fill="#6c63ff" ry="5.63" rx="41" cy="760.25" cx="651.83"/>
  <path stroke="null" transform="translate(-736.9232177734375,109.23078918457031) " id="svg_361" fill="#6c63ff" d="m668.46,753.23a11.72,11.72 0 0 0 3.83,-5.78c0.5,-2.3 -0.48,-5.06 -2.68,-5.9c-2.46,-0.94 -5.09,0.77 -7.08,2.49s-4.28,3.69 -6.89,3.32a10.48,10.48 0 0 0 3.25,-9.81a4.13,4.13 0 0 0 -0.91,-2c-1.36,-1.46 -3.84,-0.83 -5.47,0.32c-5.2,3.65 -6.65,10.72 -6.68,17.07c-0.53,-2.29 -0.08,-4.68 -0.1,-7s-0.65,-5 -2.64,-6.22a8,8 0 0 0 -4,-1c-2.34,-0.09 -4.94,0.15 -6.54,1.86c-2,2.12 -1.46,5.69 0.26,8s4.35,3.81 6.77,5.42a15,15 0 0 1 4.83,4.61a4.16,4.16 0 0 1 0.36,0.83l14.62,0a41.06,41.06 0 0 0 9.07,-6.21z"/>
  <ellipse stroke="null" id="svg_362" opacity="0.1" fill="#6c63ff" ry="4" rx="29.14" cy="795.4" cx="344.73"/>
  <path stroke="null" id="svg_363" fill="#6c63ff" d="m389.60308,916.13618a11.68,11.68 0 0 0 3.84,-5.78c0.49,-2.3 -0.49,-5.06 -2.68,-5.9c-2.46,-0.94 -5.09,0.77 -7.08,2.49s-4.28,3.69 -6.89,3.32a10.47,10.47 0 0 0 3.24,-9.81a4,4 0 0 0 -0.9,-2c-1.36,-1.46 -3.84,-0.83 -5.47,0.32c-5.2,3.65 -6.66,10.72 -6.68,17.07c-0.53,-2.29 -0.09,-4.68 -0.1,-7s-0.66,-5 -2.64,-6.22a8,8 0 0 0 -4,-0.95c-2.34,-0.09 -4.94,0.15 -6.54,1.86c-2,2.12 -1.47,5.69 0.26,8s4.35,3.81 6.76,5.42a14.92,14.92 0 0 1 4.79,4.59a4.83,4.83 0 0 1 0.36,0.83l14.64,0a40.77,40.77 0 0 0 9.09,-6.24z"/>
  <path stroke="null" id="svg_367" fill="#ffd037" d="m57.8,701.77c-2.22,1.21 -4.16,1.94 -4.32,1.64s1.49,-1.54 3.71,-2.75s1.35,-0.33 1.52,0s1.31,-0.1 -0.91,1.11z"/>
  <path style="vector-effect: non-scaling-stroke;" stroke="null" id="svg_372" fill="#a8a8a8" d="m-142.6408,864.21926s15.36,-0.47 20,-3.77s23.63,-7.23 24.78,-1.94s23.08,26.29 5.74,26.43s-40.29,-2.7 -44.91,-5.52s-5.61,-15.2 -5.61,-15.2z"/>
 </g>
</svg>